<svg width="52" height="36" viewBox="0 0 52 36" fill="none" xmlns="http://www.w3.org/2000/svg">
<path d="M12.648 35.712C9.70397 35.712 7.30397 35.072 5.44797 33.792C3.65597 32.512 2.31197 30.88 1.41597 28.896C0.583969 26.848 0.167969 24.672 0.167969 22.368C0.167969 18.912 0.935969 15.68 2.47197 12.672C4.07197 9.6 6.05597 6.976 8.42397 4.8C10.792 2.56 13.128 0.960003 15.432 0L23.784 5.664C21.16 6.944 18.664 8.512 16.296 10.368C13.928 12.16 12.168 14.048 11.016 16.032L11.496 16.416C11.944 16.16 12.456 15.968 13.032 15.84C13.608 15.648 14.344 15.552 15.24 15.552C16.648 15.552 18.056 15.904 19.464 16.608C20.872 17.248 22.056 18.24 23.016 19.584C23.976 20.928 24.456 22.624 24.456 24.672C24.456 27.296 23.88 29.408 22.728 31.008C21.64 32.608 20.168 33.792 18.312 34.56C16.52 35.328 14.632 35.712 12.648 35.712ZM39.816 35.712C36.872 35.712 34.472 35.072 32.616 33.792C30.824 32.512 29.48 30.88 28.584 28.896C27.752 26.848 27.336 24.672 27.336 22.368C27.336 18.912 28.104 15.68 29.64 12.672C31.24 9.6 33.224 6.976 35.592 4.8C37.96 2.56 40.296 0.960003 42.6 0L50.952 5.664C48.328 6.944 45.832 8.512 43.464 10.368C41.096 12.16 39.336 14.048 38.184 16.032L38.664 16.416C39.112 16.16 39.624 15.968 40.2 15.84C40.776 15.648 41.512 15.552 42.408 15.552C43.816 15.552 45.224 15.904 46.632 16.608C48.04 17.248 49.224 18.24 50.184 19.584C51.144 20.928 51.624 22.624 51.624 24.672C51.624 27.296 51.048 29.408 49.896 31.008C48.808 32.608 47.336 33.792 45.48 34.56C43.688 35.328 41.8 35.712 39.816 35.712Z" fill="url(#paint0_linear)" fill-opacity="0.6"/>
<defs>
<linearGradient id="paint0_linear" x1="26" y1="1.85596" x2="26" y2="63.856" gradientUnits="userSpaceOnUse">
<stop stop-color="#E9DBC3"/>
<stop offset="1" stop-color="#7967EB"/>
</linearGradient>
</defs>
</svg>
