<svg id="Layer_1" data-name="Layer 1" xmlns="http://www.w3.org/2000/svg" viewBox="0 0 1919.94 396.9"><defs><style>.cls-1{fill:#151f7a;}.cls-2{fill:#003;}</style></defs><title>bg_foreground</title><polygon class="cls-1" points="710.81 108.31 661.6 268.25 763.1 268.25 710.81 108.31"/><polygon class="cls-1" points="281.13 18.82 246.21 132.29 318.22 132.29 281.13 18.82"/><polygon class="cls-1" points="675.56 147.49 640.65 260.96 712.65 260.96 675.56 147.49"/><path class="cls-1" d="M522.76,161.5c-4.25-2.92,3.14-3.42.82-5.68-3.41-3.33-4.22-7.77-5.94-12-2.69-6.63-1.46-14.51-6.69-20.18a2.65,2.65,0,0,1-.44-2c1.32-6.94-3.47-11.59-6.49-17.16-.62,6.06-9.36,9.5-4.93,17-6.2,7.42-3.69,18.54-10.86,25.55-1.76,1.55-.1,2,.86,2.67h0c1.17,4.56-10.82,6.07-2.84,12.21a2.54,2.54,0,0,1-.48.5c-7.06,4.24-4.85,13.38-10.23,19,3.06-.42,4.89,3.27,7.55,2,6.15-3,12.52-.4,18.71-1.34l.18,7h0c.91,2.31,2.77,1,4.27,1.13,3.57-1.95-.54-6.58,3-8.54,7.83-.06,15.73,2.43,24.24-.23C528.33,175,529.48,166.13,522.76,161.5Z"/><path class="cls-2" d="M0,396.9H1919.94V160.47c-90,44.23-165.76,64.06-220,73.9-32.81,5.95-57,8.11-225.71,31.78-41.71,5.85-57.71,8.17-66.31,9.36-157.45,21.87-372.08,78.26-569-5.66C750.55,232.22,691,179.46,567,169.37c-75.53-6.15-154.63,5.19-246-42a354.92,354.92,0,0,1-78-54.94C229.77,54.92,218.32,48,210,45c-2.06-.73-4.62-2.52-9.3-3.57-6.33-1.43-12.79-5.66-18.15-10.08A60.33,60.33,0,0,0,147.2,17.77l-11.39-.58A145.21,145.21,0,0,0,59.93,34.05C43.5,42.82,26.14,54.18,16,66.93A55,55,0,0,1,0,80V396.9Z"/></svg>