<svg id="Layer_1" data-name="Layer 1" xmlns="http://www.w3.org/2000/svg" xmlns:xlink="http://www.w3.org/1999/xlink" viewBox="0 0 33.39 32.91"><defs><style>.cls-1,.cls-2{fill:none;}.cls-1,.cls-3{clip-rule:evenodd;}.cls-10,.cls-3,.cls-8{fill:#fff;}.cls-4{clip-path:url(#clip-path);}.cls-5{clip-path:url(#clip-path-2);}.cls-6{clip-path:url(#clip-path-3);}.cls-7{fill:#fefefe;}.cls-8{fill-rule:evenodd;}.cls-9{clip-path:url(#clip-path-4);}</style><clipPath id="clip-path"><path class="cls-1" d="M114.26-.42A16.79,16.79,0,0,0,97.57,16.46a16.7,16.7,0,1,0,33.39,0A16.79,16.79,0,0,0,114.26-.42ZM106.39,24H110V12.48h-3.56Zm1.84-12.89A2.17,2.17,0,0,1,106,8.85a2.25,2.25,0,1,1,4.5.06A2.18,2.18,0,0,1,108.23,11.15Zm15.2,13.08h-3.72c0-.59,0-1.15,0-1.71,0-1.74,0-3.48-.13-5.22-.09-1.27-.62-1.79-1.52-1.78a2,2,0,0,0-2,1.92c-.1,1.1-.14,2.21-.18,3.31s0,2.16,0,3.24a1.6,1.6,0,0,1-.1.22H112.2V12.59h3.44c0,.37.07.7.12,1.19a4.67,4.67,0,0,1,4.87-1.53,3.4,3.4,0,0,1,2.77,3.51C123.51,18.54,123.43,21.33,123.43,24.23Z"/></clipPath><clipPath id="clip-path-2"><path class="cls-1" d="M16.69,0a16.9,16.9,0,0,0-5.27,32.89c.83.15,1.14-.37,1.14-.82s0-1.46,0-2.87c-4.64,1-5.62-2.26-5.62-2.26a4.47,4.47,0,0,0-1.85-2.47c-1.52-1,.11-1,.11-1a3.51,3.51,0,0,1,2.56,1.73,3.54,3.54,0,0,0,4.86,1.41,3.6,3.6,0,0,1,1.06-2.26C9.94,23.91,6,22.46,6,16a6.56,6.56,0,0,1,1.72-4.53A6.16,6.16,0,0,1,7.92,7s1.41-.46,4.6,1.73a15.58,15.58,0,0,1,8.35,0C24.06,6.54,25.46,7,25.46,7a6.13,6.13,0,0,1,.17,4.46A6.56,6.56,0,0,1,27.34,16c0,6.48-3.9,7.91-7.62,8.33a4,4,0,0,1,1.13,3.12c0,2.26,0,4.08,0,4.63s.3,1,1.15.81A16.9,16.9,0,0,0,16.69,0"/></clipPath><clipPath id="clip-path-3"><rect class="cls-2" x="-128.2" y="-199.45" width="1440" height="1024"/></clipPath><clipPath id="clip-path-4"><path class="cls-3" d="M-96.18,5.68h-10.47l-2.12,5.43h-6.64l11.17-28.73h5.86l10.92,28.73h-6.65ZM-97.93.6-101.33-9-104.78.6Z"/></clipPath></defs><title>github_icon</title><g class="cls-5"><g class="cls-6"><rect class="cls-7" x="-5" y="-5" width="43.39" height="42.91"/></g></g><path class="cls-8" d="M-96.18,5.68h-10.47l-2.12,5.43h-6.64l11.17-28.73h5.86l10.92,28.73h-6.65ZM-97.93.6-101.33-9-104.78.6Z"/><g class="cls-9"><rect class="cls-10" x="-255.4" y="-135.67" width="1440" height="1024"/></g></svg>