<svg id="Layer_1" data-name="Layer 1" xmlns="http://www.w3.org/2000/svg" xmlns:xlink="http://www.w3.org/1999/xlink" viewBox="0 0 33.39 33.75"><defs><style>.cls-1,.cls-2{fill:none;}.cls-1,.cls-3{clip-rule:evenodd;}.cls-3,.cls-6,.cls-8{fill:#fff;}.cls-4{clip-path:url(#clip-path);}.cls-5{clip-path:url(#clip-path-2);}.cls-7{clip-path:url(#clip-path-3);}.cls-8{fill-rule:evenodd;}.cls-9{clip-path:url(#clip-path-4);}</style><clipPath id="clip-path"><path class="cls-1" d="M16.69,0A16.79,16.79,0,0,0,0,16.88,16.78,16.78,0,0,0,16.69,33.75a16.79,16.79,0,0,0,16.7-16.87A16.79,16.79,0,0,0,16.69,0ZM8.82,24.46h3.56V12.89H8.82Zm1.84-12.89A2.18,2.18,0,0,1,8.44,9.26a2.25,2.25,0,1,1,4.5.07A2.17,2.17,0,0,1,10.66,11.57Zm15.2,13.08H22.14c0-.59,0-1.15,0-1.71,0-1.74,0-3.49-.13-5.22-.08-1.27-.62-1.79-1.52-1.78a2,2,0,0,0-2,1.92c-.1,1.1-.14,2.21-.18,3.31s0,2.16,0,3.23c0,.06-.05.12-.1.23H14.63V13h3.44c0,.37.07.7.12,1.18a4.68,4.68,0,0,1,4.87-1.52,3.4,3.4,0,0,1,2.77,3.51C25.94,19,25.86,21.75,25.86,24.65Z"/></clipPath><clipPath id="clip-path-2"><rect class="cls-2" x="-128.2" y="-245.99" width="1440" height="1024"/></clipPath><clipPath id="clip-path-3"><path class="cls-1" d="M-80.88.42A16.78,16.78,0,0,0-97.57,17.29a16.85,16.85,0,0,0,11.42,16c.83.16,1.14-.36,1.14-.81s0-1.46,0-2.87c-4.65,1-5.63-2.26-5.63-2.26a4.47,4.47,0,0,0-1.85-2.47c-1.52-1.05.11-1,.11-1a3.48,3.48,0,0,1,2.56,1.73A3.54,3.54,0,0,0-85,27a3.6,3.6,0,0,1,1.06-2.26c-3.71-.43-7.61-1.87-7.61-8.34a6.56,6.56,0,0,1,1.72-4.53,6.13,6.13,0,0,1,.17-4.46S-88.24,7-85,9.15a15.73,15.73,0,0,1,4.18-.57,15.85,15.85,0,0,1,4.18.57c3.18-2.19,4.58-1.73,4.58-1.73a6.13,6.13,0,0,1,.17,4.46,6.56,6.56,0,0,1,1.71,4.53c0,6.48-3.9,7.91-7.62,8.33a4,4,0,0,1,1.13,3.12c0,2.26,0,4.08,0,4.63s.3,1,1.15.81a16.85,16.85,0,0,0,11.41-16A16.79,16.79,0,0,0-80.88.42"/></clipPath><clipPath id="clip-path-4"><path class="cls-3" d="M-193.75,6.1h-10.47l-2.12,5.43H-213l11.17-28.73h5.86L-185,11.53h-6.65ZM-195.5,1l-3.4-9.65L-202.35,1Z"/></clipPath></defs><title>linkedin_icon</title><g class="cls-4"><g class="cls-5"><rect class="cls-6" x="-5" y="-5" width="43.39" height="43.75"/></g></g><path class="cls-8" d="M-193.75,6.1h-10.47l-2.12,5.43H-213l11.17-28.73h5.86L-185,11.53h-6.65ZM-195.5,1l-3.4-9.65L-202.35,1Z"/><g class="cls-9"><rect class="cls-6" x="-352.97" y="-135.25" width="1440" height="1024"/></g></svg>