<svg id="Layer_1" data-name="Layer 1" xmlns="http://www.w3.org/2000/svg" viewBox="0 0 1919.94 519.42"><defs><style>.cls-1{fill:#5646cc;}</style></defs><title>bg_06</title><path class="cls-1" d="M1084.8,519.42h835.14V152.17c-7.68-4.58-26.43-17-39.78-25.89a105.34,105.34,0,0,0-32-14.35c-18.73-4.88-46.41-12.07-50-13-4.13-1-22.23,1-31,2.13q-4.45.55-8.83,1.49c-17.36,3.71-84.43,17.65-88,12.87-4.12-5.5-90.71,1.38-96.21,0-4.31-1.08-39-14-53.83-19.51q-6.67-2.49-13.54-4.34l-78.47-21.21a105.88,105.88,0,0,1-30.49-13.71l-13.12-8.61A106,106,0,0,0,1348.41,33c-16.19-3.42-37.71-8-45.08-9.62-5.53-1.24-15.48-6.05-24.78-11A106,106,0,0,0,1228.85,0h0a105.94,105.94,0,0,0-48.79,11.9l-7.73,4A107.79,107.79,0,0,1,1159,21.7c-19,6.74-70.83,25-74.2,25l-79.69,28.86A273.67,273.67,0,0,1,912,91.93H885.06l-43.27-4.44a218,218,0,0,0-91.21,10.06l-66.19,22.06-28.63,10.27a178.73,178.73,0,0,1-60.32,10.49H552.52a123.29,123.29,0,0,1-20.12-1.65L449.16,125a215.85,215.85,0,0,0-64.79-.85h0A200.15,200.15,0,0,0,349.93,132l-85.07,27.65a188.2,188.2,0,0,1-38.28,8.15l-45.53,4.82a342.94,342.94,0,0,0-85,20.2L66.41,204c-1.65.62-3.28,1.31-4.88,2L0,234.91V519.42"/></svg>