<svg id="Layer_1" data-name="Layer 1" xmlns="http://www.w3.org/2000/svg" viewBox="0 0 1523.55 633.2"><defs><style>.cls-1{fill:#1e2d96;}</style></defs><title>bg_04</title><path class="cls-1" d="M0,535.67v-377s306.19-3.14,316.62-48.19A32,32,0,0,1,324,96.43c1.5-1.66,3.11-3.49,4.61-5.25A32,32,0,0,1,345,81L356.58,78a32,32,0,0,1,21.54,2.09h0A32,32,0,0,0,394.73,83c20.26-1.88,69.08-8.73,87.49-31.84,18.79-23.59,62.2-42.38,78.84-49A32,32,0,0,1,574.44,0l49.07,2.51A31.79,31.79,0,0,1,643.8,11.2c6,5.67,14.67,12.59,23.13,14.5a33.08,33.08,0,0,1,9.32,3.58c9.36,5.44,27.81,17.1,33,27.42L903,279.67c2.63,3.23,16.3,10.58,18.67,14,24.23,35,53.49,55.79,90.66,76.67,34.16,19.19,63.43,53.76,94.81,57.41l416.44,89.12V633.2H0Z"/><polygon class="cls-1" points="818.23 126.25 769.02 286.19 870.51 286.19 818.23 126.25"/></svg>