<svg id="Layer_1" data-name="Layer 1" xmlns="http://www.w3.org/2000/svg" xmlns:xlink="http://www.w3.org/1999/xlink" viewBox="0 0 1414.96 793.05"><defs><style>.cls-1{fill:#2537ba;opacity:0.52;}.cls-2{fill:#c1a7e8;opacity:0.71;}.cls-3{fill:#6548cc;}.cls-4{fill:#ffebbd;}.cls-5{fill:#151f7a;}.cls-6{fill:#fff;stroke:#000;stroke-miterlimit:10;}.cls-7{fill:#2d41a5;}.cls-8{opacity:0.4;fill:url(#linear-gradient);}</style><linearGradient id="linear-gradient" x1="514.56" y1="235.73" x2="514.56" y2="591.23" gradientUnits="userSpaceOnUse"><stop offset="0" stop-color="#ffe9fe" stop-opacity="0.8"/><stop offset="0.05" stop-color="#f4d8ee" stop-opacity="0.75"/><stop offset="0.23" stop-color="#d29fbb" stop-opacity="0.58"/><stop offset="0.4" stop-color="#b57091" stop-opacity="0.45"/><stop offset="0.57" stop-color="#9f4b70" stop-opacity="0.34"/><stop offset="0.73" stop-color="#8f3158" stop-opacity="0.26"/><stop offset="0.88" stop-color="#85214a" stop-opacity="0.22"/><stop offset="1" stop-color="#821c45" stop-opacity="0.2"/></linearGradient></defs><title>bg_05</title><path class="cls-1" d="M538,180.62c-.4-.35-1.34-.08-2-.1h0l.36-1.07a2.23,2.23,0,0,0-2.21-2.77c.15-.94.25-2.23-.87-2.23-3.38,0-5.09-2.31-7-4.46,1.22-.67,2.68-1,3.41-2.39h0c-.06-.93-.17-1.82-1.32-2l-4.13-1.48c-.77-1.76-4.44-3.66-2.84-4.57,4.33-2.46.85-2.58-.45-3.86s-3.32-2.25-3.91-4.35c-1.13-4-2.48-8-3.77-11.9-1.89-5.62-6.21-9.33-8.06-14.82-.94,3.56-4.28,5-5.59,8.49-.95,2.54.64,6.6-3.1,8.42-1.85.9-2.7,2.77-3.36,5.3-.81,3.09-.13,7.68-4.34,9.47l-3.9,1.52c-1.28,0-1.27,1-1.39,1.86,1.2,1.88,3.2,1.11,4.86,1.47l-2.78,3.17a5.75,5.75,0,0,0-3.64,1.9l4.88,1.63c-2.24,3.29-5.86,4.69-9.1,6.61l-2.56.57a2.39,2.39,0,0,0,2.37.78c.11.69.21,1.38.32,2.08l-5.49,2.43c-1.44,1.19-.54,1.74.64,1.91,1.57.22,3.16.21,4.75.29l.17-.14-.09,1.13c-.77.5-3.33.85-.87,1.93a7.65,7.65,0,0,0,6.76-.59h.47l.41-.23c7,1.7-1.52,4.26,1.12,6.7a30.28,30.28,0,0,0,10.9-1.79c7-2.6,5,1.67,5,4.64,0,2.65.37,4,3.6,4.06,3.54,0,3.38-1.92,3.3-4.28-.06-2,0-3.94,0-5.88,2.67-.25,4.24,3,6.74,1.1.34,0,.69,0,1,.06.18.34.34.82.7.12h0l.43-.26h0c2.92.52,5.4,3.09,8.54,2.17.61-2.55-6.28-3.77-.73-6.71h0a1,1,0,0,0,.91.26,7.34,7.34,0,0,0,6.32.76c2.55-.82.35-1.41-.59-1.84l-1.32-1.34,1.3-.53.3-.09-.3.09a9.52,9.52,0,0,0,5.49.26C538,181.93,538.93,181.39,538,180.62Z"/><path class="cls-1" d="M366.43,126.29c-.4-.35-1.34-.08-2-.09h0l.36-1.08a2.23,2.23,0,0,0-2.21-2.77c.15-.93.25-2.23-.88-2.23-3.37,0-5.08-2.31-7-4.46,1.23-.67,2.69-1,3.42-2.39h0c-.06-.93-.18-1.82-1.32-2l-4.13-1.49c-.78-1.75-4.44-3.66-2.85-4.57,4.34-2.46.86-2.58-.44-3.86S346,99.06,345.45,97c-1.13-4-2.48-8-3.78-11.9-1.88-5.62-6.2-9.33-8.05-14.82-.94,3.56-4.28,5-5.59,8.49-1,2.54.64,6.61-3.1,8.42-1.85.9-2.7,2.77-3.36,5.3-.81,3.09-.13,7.69-4.34,9.48l-3.91,1.52c-1.27,0-1.26,1-1.38,1.85,1.2,1.88,3.2,1.11,4.86,1.47L314,109.94a5.72,5.72,0,0,0-3.64,1.91l4.88,1.62c-2.24,3.29-5.86,4.69-9.1,6.61l-2.56.57a2.35,2.35,0,0,0,2.37.78c.11.69.21,1.39.31,2.08l-5.48,2.43c-1.45,1.19-.54,1.75.64,1.91,1.57.23,3.16.21,4.75.29l.17-.14-.09,1.13c-.78.5-3.33.85-.87,1.93a7.65,7.65,0,0,0,6.76-.59h.47l.41-.23c7,1.7-1.52,4.27,1.12,6.7a30.23,30.23,0,0,0,10.89-1.79c7-2.6,5,1.67,5,4.64,0,2.66.37,4,3.6,4.07,3.54,0,3.38-1.93,3.3-4.28-.06-2,0-4,0-5.89,2.67-.25,4.24,3,6.74,1.1.34,0,.69,0,1,.06.18.34.34.82.7.12h0l.43-.26h0c2.92.52,5.4,3.09,8.54,2.17.61-2.55-6.28-3.77-.73-6.71h0a1,1,0,0,0,.91.26,7.34,7.34,0,0,0,6.32.76c2.55-.82.35-1.4-.59-1.84L359,128l1.3-.53a1.49,1.49,0,0,1,.3-.09l-.3.09a9.52,9.52,0,0,0,5.49.26C366.39,127.6,367.32,127.06,366.43,126.29Z"/><path class="cls-1" d="M626.14,175.62c-.4-.35-1.34-.08-2-.1h0l.36-1.07a2.23,2.23,0,0,0-2.21-2.77c.15-.94.25-2.23-.87-2.23-3.38,0-5.09-2.31-7-4.46,1.22-.67,2.68-1,3.41-2.39h0c-.06-.93-.17-1.82-1.32-2l-4.13-1.48c-.77-1.76-4.44-3.66-2.84-4.57,4.33-2.46.85-2.58-.45-3.86s-3.32-2.25-3.91-4.35c-1.13-4-2.48-8-3.77-11.9-1.89-5.62-6.21-9.33-8.06-14.82-.94,3.56-4.28,5-5.59,8.49-1,2.54.65,6.6-3.1,8.42-1.85.9-2.7,2.77-3.36,5.3-.81,3.09-.13,7.68-4.34,9.47l-3.9,1.52c-1.28,0-1.27,1-1.39,1.86,1.2,1.88,3.2,1.11,4.86,1.47l-2.78,3.17a5.78,5.78,0,0,0-3.64,1.9L575,162.8c-2.24,3.29-5.86,4.69-9.1,6.61l-2.56.57a2.39,2.39,0,0,0,2.37.78c.11.69.21,1.38.32,2.08l-5.49,2.43c-1.44,1.19-.54,1.74.64,1.91,1.57.22,3.16.21,4.75.29l.17-.14-.09,1.13c-.77.5-3.33.85-.87,1.93a7.65,7.65,0,0,0,6.76-.59h.47l.41-.23c7,1.7-1.52,4.26,1.12,6.7a30.28,30.28,0,0,0,10.9-1.79c7-2.6,5,1.67,5,4.64,0,2.65.37,4,3.6,4.06,3.54,0,3.38-1.92,3.31-4.27-.07-2,0-3.95,0-5.89,2.67-.25,4.24,3,6.74,1.1.34,0,.69,0,1,.06.18.34.34.82.7.12h0l.43-.26h0c2.92.52,5.4,3.09,8.54,2.17.61-2.55-6.28-3.77-.73-6.71h0a1,1,0,0,0,.91.26,7.34,7.34,0,0,0,6.32.76c2.55-.82.35-1.41-.59-1.84l-1.32-1.34,1.3-.53.3-.09-.3.09a9.52,9.52,0,0,0,5.49.26C626.1,176.93,627,176.39,626.14,175.62Z"/><polygon class="cls-2" points="540.85 72.72 491.64 232.66 593.14 232.66 540.85 72.72"/><polygon class="cls-2" points="606.07 127.24 567.05 254.05 647.53 254.05 606.07 127.24"/><path class="cls-3" d="M874.51,156c.37,2.78.13,5.69,1.87,8.42.72-2.34,1.38-4.47,2-6.61.49,7.17,5,12.43,8,18.3,2.92,5.72,7.68,6.9,13.73,4.3,2-.86,1.87-2.28,1.75-3.68-.58-7.07,3.48-13.88.73-21.2-1.07-2.87,4-4.9,2.79-8.81-.86-2.73.74-5.73-1.34-8.69s2.25-4.39,3-7.05c2.61-8.63,2.88-17.76,6.9-26.4.64,5,1.2,10,2,15,.78,5.16-.2,10.75,4,15.11,1,1,.53,2.94.17,4.74-.93,4.71-1.44,9.62.78,14.29.46,1,.89,2.43.49,3.27-2.71,5.68-.86,11.51-.8,17.26,0,3.77-1.13,8.11,4.5,9.59,1,.26,2,3.41,1.7,4.91a61.93,61.93,0,0,0-.92,24.1c-4.19,2.8-9,2.62-13.7,2.81-17.82.69-35.64-.51-53.47,0-3.13.09-6.08.31-7.87,3.39-4.86,2.59-9.72.32-14.58.05a45.75,45.75,0,0,0-8.42.46c-6.4,1.2-11.44-.93-14.68-6.78-.91-8.24.67-16.54-.93-24.82-.48-2.52,1.52-6.07,4-6.88,5.87-1.88,9.33-4.71,8.94-11.45-.17-2.92,1.1-5.92,1.79-9.25,2.83,1.85,1.41,5.4,3.82,7.74l3.69-17.85,1-.23c.87,2.31,1.81,4.6,2.6,6.93.54,1.61,1.29,2.54,3.22,2.45s2.77-1.06,2.6-2.84c-.43-4.41,3.31.58,3.36-1.44.07-2.46,2.14-4.71,1.82-6.52-1.53-8.76,3.22-16.34,3.91-24.61,1.24-.65,1.51.39,2,1.12-.1,7.77,4.94,14.45,5,22.35,0,.86,2.09,3.79,2.47,6.12.22,1.35,1.11,2.06,2.37,1.6,3.2-1.16,5.33.11,7,2.69a1.22,1.22,0,0,0,.39-.25,2.57,2.57,0,0,0,.24-.5C873,156.34,873.23,155.22,874.51,156Z"/><rect class="cls-4" x="848.22" y="191.44" width="13.37" height="21.12" rx="6.69"/><path class="cls-5" d="M162.06,44.08c-.3-.27-1-.07-1.53-.08h0l.27-.8a1.68,1.68,0,0,0-1.67-2.09c.12-.7.19-1.67-.65-1.67-2.54,0-3.82-1.74-5.25-3.35.92-.51,2-.77,2.57-1.8h0c-.05-.7-.13-1.37-1-1.54l-3.1-1.12c-.58-1.32-3.34-2.75-2.14-3.43,3.26-1.85.64-1.94-.33-2.91s-2.5-1.69-2.94-3.27c-.86-3-1.87-6-2.84-8.94-1.42-4.23-4.67-7-6.06-11.14-.7,2.67-3.22,3.76-4.2,6.38-.72,1.91.49,5-2.33,6.33-1.39.68-2,2.08-2.53,4-.61,2.33-.09,5.78-3.26,7.13l-2.93,1.14c-1,0-1,.74-1,1.4.91,1.41,2.41.83,3.66,1.1l-2.09,2.38a4.35,4.35,0,0,0-2.74,1.44l3.67,1.22c-1.68,2.47-4.41,3.52-6.84,5l-1.93.42a1.77,1.77,0,0,0,1.79.59c.08.52.16,1,.23,1.56l-4.12,1.83c-1.09.9-.41,1.31.48,1.44,1.18.17,2.38.15,3.57.22l.13-.11c0,.29-.05.57-.07.85-.58.37-2.5.64-.65,1.45a5.74,5.74,0,0,0,5.08-.44h.35l.31-.18c5.26,1.29-1.14,3.21.84,5a22.92,22.92,0,0,0,8.2-1.34c5.28-2,3.77,1.25,3.76,3.48,0,2,.28,3,2.7,3.06,2.67,0,2.54-1.44,2.49-3.22,0-1.48,0-3,0-4.42,2-.19,3.19,2.25,5.06.83.26,0,.52,0,.78,0,.14.26.25.61.53.09h0l.32-.19h0c2.19.38,4.06,2.32,6.42,1.63.46-1.92-4.72-2.84-.55-5h0a.76.76,0,0,0,.69.19,5.53,5.53,0,0,0,4.75.57c1.91-.62.26-1.06-.45-1.39l-1-1,1-.4.22-.07-.22.07a7.15,7.15,0,0,0,4.12.19C162,45.06,162.73,44.65,162.06,44.08Z"/><path class="cls-4" d="M913.91,146.44v-5.75a1.64,1.64,0,0,0-1.63-1.63h0a1.63,1.63,0,0,0-1.62,1.63v5.75Z"/><path class="cls-4" d="M856.54,156.38v-5.75a1.64,1.64,0,0,0-1.63-1.63h0a1.63,1.63,0,0,0-1.62,1.63v5.75Z"/><line class="cls-6" x1="911.28" y1="147.44" x2="911.28" y2="147.44"/><path class="cls-7" d="M0,616.11v-514c3.36,0,55.23-18.31,74.2-25a105.53,105.53,0,0,0,13.32-5.79l7.74-4A106,106,0,0,1,144,55.35h0a105.88,105.88,0,0,1,49.71,12.38c9.29,4.94,19.24,9.75,24.78,11,7.37,1.64,28.89,6.2,45.08,9.63a106,106,0,0,1,36.23,15.08L313,112a105.86,105.86,0,0,0,30.49,13.7l78.44,21.2c4.58,1.24,9.11,2.69,13.56,4.35,14.79,5.53,49.53,18.44,53.84,19.52,5.5,1.37,92.09-5.5,96.21,0,3.59,4.78,70.63-9.16,88-12.87q4.39-.93,8.85-1.49c8.74-1.1,26.84-3.17,31-2.14,3.59.9,31.27,8.1,50,13a105.77,105.77,0,0,1,32,14.36c16.19,10.81,40.31,26.75,43,27.65,2.37.79,12.93.67,21.47.43a105.57,105.57,0,0,0,21.82-2.92l65.11-15.71a41.45,41.45,0,0,1,8.73-1.14l16.86-.35a49.91,49.91,0,0,1,21.7,4.45l25.4,11.5a60.92,60.92,0,0,1,17.2,11.68l67.78,65.43a108.91,108.91,0,0,0,25.86,18.5L1217.73,346l60.71,25.69a94.5,94.5,0,0,1,20.09,11.58l43.58,32.83,11,12.07a67.89,67.89,0,0,0,26.13,17.72l35.68,13.5V793.05H0Z"/><path class="cls-8" d="M190.74,401.8c2.53-6.89,14.15-8.25,15.23-16.92.15-1.18.12-2.64-3.81-11-7.13-15.2-10.85-18.52-10.58-25,.11-2.57.9-6.57,4.66-11.42-.86-3.49-2.88-13.7,3-21.16a20.72,20.72,0,0,1,5.5-4.65c11.33-7.49,17.21-2.73,27.5-9.31,2.44-1.56,4.7-3.48,8.47-3.81,2.44-.21,3.46.43,8,1.27,5.86,1.07,8.78,1.61,10.58.85,4.89-2.07,5.93-11.46,5.5-17.77-.87-12.86-7.93-14.69-9.56-24.63-2.87-17.46,15.27-33.91,19.6-37.83,8.72-7.91,14.48-9,29.07-16.37,27.34-13.87,38-16.11,41.57-26.58,1.7-4.92,1-9.08,5.12-14,4.33-5.15,8.51-4.58,14-9.2,7.19-6.09,5.88-12.13,9.88-17,12.35-15.16,57.3,2.73,60.65,4.09,19.07,7.76,40.22,16.37,48.73,36.46,7.25,17.13-2.7,23.72,1.36,56.22,2.69,21.62,4.47,35.88,15.33,45.66,14.72,13.25,29.39,3.19,60.31,18.4,14.56,7.16,21.84,10.74,25.56,18.4,7.58,15.62-.34,40.26-2.39,70.87a16.69,16.69,0,0,0,1.37,8.52c4.35,9.18,17.35,11.41,22.83,12.27,43.17,6.81,131-23.61,156.05.68,2.26,2.19,5.79,6.55,12.61,9.54,12.78,5.61,20.81-.74,33.39,1.71,13.51,2.62,27.85,14.51,28.63,26.23,1.23,18.73-36.14,31.39-44,34.08-25.24,8.66-55.36,8.73-60.31-1.71a19.94,19.94,0,0,1-1-12.6c1.28-4.81,3.79-5.65,4.09-8.18.85-7.4-18.41-19.58-39.53-21.81-19.33-2-31.56,5.15-47.36,10.56-29,9.95-48.31,6.43-81.44,6.14C467.84,451.93,279,481.75,214.8,435.35,206.35,429.23,186.89,412.28,190.74,401.8Z"/></svg>