<svg id="Layer_1" data-name="Layer 1" xmlns="http://www.w3.org/2000/svg" viewBox="0 0 1081.06 737.7"><defs><style>.cls-1{fill:#1e2d96;}.cls-2{fill:#2537ba;opacity:0.52;}.cls-3{fill:#151f7a;}</style></defs><title>bg_02</title><polygon class="cls-1" points="336.17 371.1 302.86 479.34 371.55 479.34 336.17 371.1"/><polygon class="cls-1" points="272.45 340.56 223.24 500.5 324.74 500.5 272.45 340.56"/><path class="cls-2" d="M788.21,221.47c-.4-.35-1.34-.09-2-.1h0l.36-1.07c.15-1.64-.53-2.6-2.21-2.77.15-.94.25-2.23-.88-2.23-3.37,0-5.08-2.32-7-4.46,1.23-.68,2.69-1,3.42-2.4h0c-.06-.92-.18-1.82-1.32-2l-4.13-1.48c-.78-1.76-4.45-3.66-2.85-4.57,4.34-2.46.86-2.58-.44-3.87s-3.32-2.25-3.91-4.35c-1.14-4-2.48-8-3.78-11.89-1.88-5.63-6.2-9.33-8.05-14.83-.94,3.56-4.28,5-5.59,8.5-1,2.53.64,6.6-3.1,8.42-1.85.89-2.7,2.76-3.37,5.29-.8,3.09-.12,7.69-4.33,9.48l-3.91,1.52c-1.28,0-1.26,1-1.38,1.86,1.2,1.87,3.2,1.11,4.86,1.47l-2.78,3.16a5.72,5.72,0,0,0-3.64,1.91l4.88,1.62c-2.24,3.3-5.87,4.7-9.11,6.62l-2.56.56a2.39,2.39,0,0,0,2.38.79c.11.69.21,1.38.31,2.07l-5.48,2.44c-1.45,1.19-.55,1.74.64,1.91,1.56.22,3.16.2,4.74.29l.18-.14-.09,1.12c-.78.5-3.33.85-.87,1.94a7.66,7.66,0,0,0,6.76-.6h.47l.4-.24c7,1.71-1.51,4.27,1.13,6.71a30.23,30.23,0,0,0,10.89-1.79c7-2.61,5,1.66,5,4.63,0,2.66.37,4,3.6,4.07,3.54,0,3.38-1.92,3.3-4.28-.06-2,0-3.95,0-5.88,2.67-.25,4.24,3,6.74,1.1.34,0,.69,0,1,.06.18.34.34.81.7.12h0l.42-.26h0c2.93.51,5.41,3.09,8.54,2.17.62-2.56-6.27-3.77-.72-6.71h0a1,1,0,0,0,.91.25,7.34,7.34,0,0,0,6.32.77c2.55-.83.35-1.41-.59-1.85-.44-.44-.88-.89-1.33-1.33l1.31-.53a1,1,0,0,1,.3-.1l-.3.1a9.61,9.61,0,0,0,5.49.25C788.17,222.78,789.1,222.24,788.21,221.47Z"/><path class="cls-3" d="M0,672.15s17.55-93.21,39.38-93.81a18.1,18.1,0,0,0,10.39-3.58l7-5.28,11-6.05a16.82,16.82,0,0,0,4.68-3.76l27.3-31.48a17.38,17.38,0,0,1,8.48-5.31l18.82-5.26a17.47,17.47,0,0,0,5.54-2.64l40.6-29a18,18,0,0,1,6.41-2.86c7.2-1.62,23.88-4.77,38.93-3.1l30.3-8.29q.43-.12.87-.21c4.16-.93,37.73-8.52,46.78-15,1.21-.87,2.41-1.75,3.68-2.54,3.27-2,8.92-5.3,13.07-6.4a18,18,0,0,0,7.22-3.69c6.77-5.86,19.76-17.87,20.11-24.08l22.85-8.32a18.22,18.22,0,0,1,5.52-1.08c9.65-.39,41.07-1.92,48.26-5.66,8.51-4.42,28.38-4.42,29.8-4.42s29.32-22.15,37.36-32.77,10.41-42.51,11.83-43.4c.87-.55,6.22-5.62,10.21-9.44a15.51,15.51,0,0,0,4.57-8.1C512,301.27,517,290,537.33,271c21.22-19.86,30.58-29.5,34.29-33.49a17.06,17.06,0,0,1,5.41-3.91c10.6-4.91,43.83-19.81,52.54-18,10.4,2.21,17,2.21,63.38,31.44h0s26,5.31,32.16,3.54,20.34-28.34,32.64-31.44,45.41-89.45,47.3-92.55,29.8-53.58,71-57.13c30.29-2.6,67.24-1.37,84.64-.54a17.65,17.65,0,0,0,15.42-7.42l12.43-18.13A26.06,26.06,0,0,1,1003,33.05c4.61-1.28,10.64-4.49,16.32-12.24h0l3.6-1.5a74.27,74.27,0,0,1,15.41-4.49c7-1.24,18.45-4.77,27.34-14.82h2.12a17.72,17.72,0,0,1,13.27,5.82V737.7H0Z"/><path class="cls-3" d="M390.06,410.73h0l-4.89-.23h0c.48-.6,1.45-1.32,1.34-1.77-.28-1.1-1.45-1.15-2.47-1.1l-1.32-.86c1-1.44,3.6,0,4.19-2.27a5.94,5.94,0,0,0,.31-.75c3.63-.3,6-2.69,8.57-4.75-2.16-1.88-5.36,1.7-5.79.07-.88-3.32-2.41-1.49-3.84-1.37l-2.28-1.25c-1.12-1.79-3.62-.14-4.75-1.9,1.18-.94,3.07-.58,3.89-2.16a4.91,4.91,0,0,1,.06-.66,13.35,13.35,0,0,0,8.26-4.8c1.63-2.1-.4-1.24-1.3-1.14a1.3,1.3,0,0,1-.63.06c-.33-.58.15-2.67-1.32-1.08l-1.87,0-1.33-1.26h0c-1.05-1.61-2.54-.78-3.9-.73-1.77-1.09-5.72.36-4.68-4a4.71,4.71,0,0,0,4.74-.25c1.47.35,1.72-1.37,2.74-1.64,1.76-.46,3.28-1.48,3.15-3.19-.17-2.13-2.7-1-3.88-1.92-1.36,1-2.59-.27-3.9-.21.3-1.26,1.66-2.26.07-3.84-2.76-2.76-3.51-6.68-5-10.14a3.46,3.46,0,0,0,.55-4l-1.52,1c-2.21-.6-.82,1.22-1.22,1.83-2.39,4.8-4.26,9.9-7.73,14.11a3.3,3.3,0,0,0-4.2,1h0L359,373.25c-.36,3.73,2.89,4.08,5.08,5.42,1.48,1.48,3.46.11,5.06.9.59,3.47-3.36,1.17-4,3.12l-1.1-.32h0c-1-1.13-2.49-1-3.68-1-1.67,0-.67.79-.11,1.31h0l1,1.9-2.26.11.35.16a3.52,3.52,0,0,1-.35-.16,5.66,5.66,0,0,0-.82.06c-2.56-1.13-3.64-.31-3.73,2.84h0a16.61,16.61,0,0,0,7.66,4.11,5.67,5.67,0,0,0,.05.58c.77,1.74,2.77,1.34,4,2.32-.93,3.67-3.87-.39-5.29,1.49l2,2.3-1.44.05c-3.4-2.44-6.83,1.33-10.23-.05-1.09-.76-2.15-1.61-3.79-1.37.73,1.32,1.39,2.24,2.59,2.6a12.43,12.43,0,0,0,8.18,3.92c2.27,1.26,4.84.28,7.18,1,.34,1.91-1.15,2.3-2.4,2.9-1.34,1.45-3.61-.84-4.81,1.18l-3,1.89c-1.1,1.17-2.52,1.26-4,1.22-.59-.09-1.27-.69-1.75.07s-.23,1.51.68,2c1.62.81,3.14,1.88,5.06,1.83,4,1.6,8,1.21,12,0,1.6.2,3.85-.61,3.47,2.47-.17,1.43.23,2.47,2.08,2.53,2.17.07,2.45-1.16,2.27-2.78-.3-2.79,1.76-2,3.21-2.23l1.69.21h0c2,1.09,4.13.94,6.28.59,1.43.27,2.87.53,4-.75,4.64-1,4.82-1.21,4-3.8Zm-16.95-54.24h0Z"/><path class="cls-3" d="M643.74,208.48h0l-4.89-.23h0c.48-.6,1.45-1.32,1.34-1.77-.28-1.1-1.45-1.15-2.48-1.1l-1.31-.86c1-1.44,3.6,0,4.19-2.27a4.93,4.93,0,0,0,.31-.75c3.63-.3,6-2.69,8.57-4.75-2.16-1.88-5.36,1.7-5.79.07-.88-3.32-2.41-1.49-3.84-1.37l-2.28-1.25c-1.12-1.79-3.62-.14-4.75-1.9,1.18-.93,3.07-.58,3.88-2.16,0-.22,0-.44.07-.66a13.41,13.41,0,0,0,8.26-4.79c1.63-2.11-.41-1.25-1.3-1.15a1.48,1.48,0,0,1-.64.07c-.32-.59.15-2.68-1.31-1.09l-1.87,0-1.33-1.26h0c-1.05-1.61-2.54-.78-3.9-.72-1.77-1.1-5.72.35-4.68-4a4.71,4.71,0,0,0,4.74-.25c1.47.35,1.72-1.37,2.74-1.64,1.76-.46,3.28-1.48,3.15-3.19-.17-2.13-2.7-1-3.88-1.92-1.36,1-2.59-.27-3.9-.21.3-1.26,1.66-2.25.07-3.84-2.77-2.75-3.51-6.68-5-10.14a3.46,3.46,0,0,0,.55-4l-1.52,1c-2.21-.6-.82,1.22-1.22,1.83-2.39,4.8-4.26,9.9-7.73,14.11a3.3,3.3,0,0,0-4.2.95h0L612.63,171c-.36,3.73,2.89,4.08,5.08,5.42,1.48,1.48,3.46.11,5.06.9.59,3.47-3.36,1.17-4,3.12l-1.09-.32h0c-1-1.14-2.49-1-3.68-1-1.67,0-.67.79-.11,1.31h0l1,1.9-2.26.11.35.16a3.52,3.52,0,0,1-.35-.16,5.66,5.66,0,0,0-.82.06c-2.56-1.13-3.64-.31-3.73,2.84h0a16.61,16.61,0,0,0,7.66,4.11,5.44,5.44,0,0,0,0,.58c.77,1.74,2.77,1.35,4,2.32-.92,3.67-3.86-.39-5.28,1.49l2,2.3-1.44.05c-3.4-2.44-6.83,1.33-10.23,0-1.09-.76-2.15-1.62-3.79-1.38.73,1.32,1.39,2.24,2.59,2.6a12.43,12.43,0,0,0,8.18,3.92c2.27,1.26,4.84.28,7.18,1,.34,1.91-1.15,2.3-2.4,2.9-1.34,1.45-3.61-.84-4.81,1.19l-3,1.88c-1.1,1.17-2.52,1.26-4,1.22-.59-.09-1.27-.68-1.76.08s-.22,1.5.69,2c1.62.81,3.14,1.88,5.06,1.83,4,1.6,8,1.21,12,0,1.6.2,3.85-.61,3.47,2.47-.17,1.43.23,2.47,2.08,2.53,2.17.07,2.44-1.16,2.27-2.78-.3-2.79,1.76-2,3.21-2.23l1.69.21h0c2,1.09,4.13.94,6.28.59,1.43.27,2.87.53,4-.75,4.65-1,4.83-1.21,4-3.8Zm-17-54.23Z"/><path class="cls-3" d="M909.94,66.08h0l-4.89-.23h0c.48-.6,1.45-1.32,1.34-1.77-.28-1.1-1.44-1.15-2.47-1.1l-1.31-.87c1-1.43,3.59,0,4.19-2.26a7.92,7.92,0,0,0,.31-.75c3.62-.3,6-2.69,8.56-4.75-2.16-1.88-5.36,1.7-5.79.07-.88-3.32-2.41-1.49-3.83-1.37l-2.29-1.25c-1.12-1.79-3.61-.14-4.74-1.9,1.17-.94,3.07-.58,3.88-2.16a4.93,4.93,0,0,1,.07-.66,13.35,13.35,0,0,0,8.25-4.8c1.64-2.1-.4-1.24-1.3-1.14a1.3,1.3,0,0,1-.63.06c-.32-.58.15-2.67-1.31-1.08l-1.87,0c-.45-.41-.89-.83-1.33-1.25h0c-1-1.61-2.55-.78-3.91-.73-1.77-1.09-5.72.36-4.68-4a4.71,4.71,0,0,0,4.74-.25c1.47.35,1.72-1.37,2.75-1.64,1.75-.46,3.28-1.48,3.14-3.19-.17-2.13-2.7-1-3.88-1.92-1.35,1-2.59-.27-3.9-.21.3-1.26,1.66-2.26.07-3.84-2.76-2.76-3.51-6.68-5-10.14a3.47,3.47,0,0,0,.54-4l-1.51,1c-2.22-.6-.82,1.22-1.23,1.83-2.39,4.8-4.25,9.9-7.72,14.11a3.3,3.3,0,0,0-4.2.95h0c-.38.59-.75,1.18-1.12,1.77-.36,3.73,2.89,4.09,5.07,5.43,1.48,1.48,3.47.11,5.07.9.58,3.47-3.37,1.17-4,3.12l-1.1-.33h0c-1-1.13-2.48-1-3.68-1-1.67,0-.67.79-.11,1.31h0l1,1.9-2.26.11.36.16a2.83,2.83,0,0,1-.36-.16,5.76,5.76,0,0,0-.82.06c-2.55-1.13-3.64-.31-3.72,2.84h0A16.58,16.58,0,0,0,882,47c0,.19,0,.39,0,.58.77,1.74,2.78,1.34,4,2.32-.92,3.67-3.86-.39-5.29,1.49l2,2.3-1.44.05c-3.4-2.44-6.82,1.33-10.23-.05-1.08-.76-2.14-1.61-3.79-1.37.73,1.32,1.39,2.24,2.59,2.6A12.45,12.45,0,0,0,878,58.88c2.27,1.26,4.84.28,7.19,1,.33,1.91-1.16,2.3-2.41,2.9-1.34,1.45-3.6-.84-4.81,1.18l-3,1.89c-1.09,1.17-2.52,1.26-4,1.22-.6-.09-1.28-.69-1.76.07s-.22,1.51.68,2c1.62.81,3.14,1.88,5.07,1.83,4,1.6,8,1.21,12,0,1.59.2,3.84-.61,3.46,2.47-.17,1.43.23,2.47,2.08,2.53,2.18.07,2.45-1.17,2.27-2.78-.3-2.79,1.76-2,3.21-2.23l1.69.21h0c2,1.09,4.14.94,6.28.59,1.44.27,2.87.53,4-.75,4.64-1,4.82-1.21,4-3.8ZM893,11.84h0Z"/><path class="cls-3" d="M950.09,76.56h0l-3.74-.18h0c.36-.45,1.1-1,1-1.35-.21-.84-1.11-.88-1.89-.84l-1-.66c.79-1.1,2.76,0,3.21-1.74a5.72,5.72,0,0,0,.24-.57c2.77-.23,4.62-2.06,6.55-3.64-1.65-1.44-4.1,1.3-4.43.06-.67-2.55-1.84-1.14-2.93-1.06-.59-.31-1.17-.63-1.75-1-.86-1.37-2.77-.11-3.64-1.46.9-.71,2.35-.44,3-1.65a2.73,2.73,0,0,1,0-.5,10.25,10.25,0,0,0,6.32-3.68c1.25-1.61-.31-1-1-.87a1,1,0,0,1-.48.05c-.25-.45.11-2.05-1-.83l-1.43,0-1-1h0c-.8-1.23-2-.6-3-.56-1.36-.83-4.38.27-3.59-3.07a3.6,3.6,0,0,0,3.63-.19c1.13.27,1.32-1.05,2.1-1.26,1.34-.35,2.51-1.13,2.41-2.44-.13-1.63-2.07-.74-3-1.47-1,.79-2-.21-3-.16.23-1,1.27-1.73.06-2.94-2.12-2.11-2.69-5.11-3.86-7.76a2.64,2.64,0,0,0,.42-3.07l-1.16.79c-1.7-.46-.63.93-.94,1.4-1.83,3.68-3.26,7.58-5.91,10.81a2.53,2.53,0,0,0-3.22.72h0c-.28.46-.57.91-.86,1.36C926,50.72,928.49,51,930.16,52c1.13,1.13,2.65.08,3.88.68.44,2.66-2.58.9-3,2.39l-.84-.24h0c-.76-.87-1.9-.76-2.82-.77-1.27,0-.51.6-.08,1h0l.76,1.45-1.73.09c.09,0,.18.08.27.12l-.27-.12a4.44,4.44,0,0,0-.63,0c-2-.86-2.79-.23-2.85,2.18h0A12.65,12.65,0,0,0,928.66,62c0,.15,0,.3,0,.45.58,1.33,2.12,1,3,1.77-.71,2.82-3-.3-4,1.14l1.5,1.77-1.1,0c-2.6-1.87-5.23,1-7.83,0a3.81,3.81,0,0,0-2.91-1,3.55,3.55,0,0,0,2,2,9.56,9.56,0,0,0,6.26,3c1.74,1,3.71.21,5.5.73.26,1.46-.88,1.77-1.84,2.22-1,1.12-2.76-.64-3.68.91l-2.28,1.45a3.7,3.7,0,0,1-3,.93c-.46-.07-1-.52-1.35.06s-.17,1.15.52,1.5c1.24.61,2.41,1.43,3.88,1.4a13.44,13.44,0,0,0,9.17,0c1.23.15,2.95-.47,2.66,1.89-.14,1.09.17,1.89,1.59,1.94,1.66.05,1.87-.9,1.74-2.14-.23-2.13,1.35-1.55,2.46-1.7l1.29.16h0a7.18,7.18,0,0,0,4.81.45c1.09.21,2.19.41,3.07-.57,3.56-.8,3.7-.93,3-2.91ZM937.11,35h0Z"/><path class="cls-3" d="M413.28,414.18h0l-3.42-.16h0c.33-.42,1-.92.93-1.23-.19-.78-1-.81-1.73-.78l-.92-.6c.72-1,2.52,0,2.93-1.59a3.38,3.38,0,0,0,.22-.52c2.54-.21,4.22-1.88,6-3.32-1.51-1.32-3.74,1.19-4,0-.61-2.33-1.68-1-2.68-1l-1.6-.88c-.78-1.25-2.53-.1-3.32-1.33.82-.65,2.15-.4,2.72-1.51a2.4,2.4,0,0,1,0-.46,9.34,9.34,0,0,0,5.77-3.36c1.14-1.47-.28-.87-.91-.79a1,1,0,0,1-.44,0c-.23-.41.1-1.87-.92-.76l-1.31,0-.93-.88h0c-.73-1.13-1.78-.55-2.73-.51-1.24-.76-4,.25-3.28-2.81a3.31,3.31,0,0,0,3.32-.17c1,.24,1.21-1,1.92-1.15,1.23-.32,2.3-1,2.2-2.23-.11-1.49-1.89-.68-2.71-1.35-.95.72-1.82-.19-2.73-.14.21-.88,1.16-1.58.05-2.69-1.94-1.93-2.46-4.67-3.53-7.1a2.41,2.41,0,0,0,.39-2.8l-1.06.73c-1.55-.42-.58.85-.86,1.28-1.67,3.36-3,6.92-5.41,9.87a2.29,2.29,0,0,0-2.93.66h0l-.79,1.25c-.25,2.61,2,2.85,3.56,3.79,1,1,2.42.08,3.54.63.41,2.43-2.36.82-2.79,2.19l-.77-.23h0a3.18,3.18,0,0,0-2.57-.71c-1.17,0-.47.56-.07.92h0l.69,1.33-1.58.08.24.11-.24-.11a3.77,3.77,0,0,0-.58,0c-1.79-.79-2.54-.22-2.6,2h0a11.55,11.55,0,0,0,5.35,2.87c0,.14,0,.27,0,.41.53,1.22,1.94.94,2.79,1.62-.65,2.57-2.71-.27-3.7,1l1.37,1.61-1,0c-2.38-1.71-4.77.93-7.16,0a3.5,3.5,0,0,0-2.65-1,3.28,3.28,0,0,0,1.81,1.83,8.71,8.71,0,0,0,5.73,2.73c1.58.89,3.38.2,5,.68.24,1.33-.8,1.61-1.68,2-.94,1-2.52-.58-3.36.84L388.8,414a3.38,3.38,0,0,1-2.79.85c-.41-.06-.89-.48-1.23,0s-.15,1.05.48,1.37a7.59,7.59,0,0,0,3.55,1.28,12.19,12.19,0,0,0,8.38,0c1.11.14,2.69-.42,2.42,1.73-.12,1,.16,1.73,1.46,1.77,1.52,0,1.71-.81,1.59-2-.22-1.95,1.23-1.42,2.24-1.55l1.18.14h0a6.55,6.55,0,0,0,4.4.41c1,.19,2,.38,2.81-.52,3.25-.73,3.37-.85,2.79-2.66Zm-11.86-37.94Z"/><path class="cls-3" d="M360,444.74h0l-4.89-.24h0c.47-.59,1.44-1.31,1.33-1.76-.28-1.11-1.44-1.15-2.47-1.11l-1.31-.86c1-1.43,3.59,0,4.19-2.26a7.12,7.12,0,0,0,.31-.76c3.62-.3,6-2.69,8.56-4.74-2.16-1.88-5.35,1.69-5.78.07-.88-3.33-2.41-1.49-3.84-1.38l-2.29-1.24c-1.12-1.79-3.61-.14-4.74-1.9,1.17-.94,3.07-.58,3.88-2.16a4.76,4.76,0,0,1,.07-.66,13.38,13.38,0,0,0,8.26-4.8c1.63-2.11-.41-1.25-1.31-1.14a1.3,1.3,0,0,1-.63.06c-.32-.58.15-2.67-1.31-1.09l-1.87,0-1.33-1.26h0c-1-1.6-2.55-.77-3.9-.72-1.78-1.09-5.72.35-4.69-4a4.73,4.73,0,0,0,4.75-.25c1.46.35,1.72-1.37,2.74-1.64,1.75-.46,3.28-1.49,3.14-3.19-.16-2.13-2.7-1-3.87-1.93-1.36,1-2.6-.27-3.91-.2.31-1.26,1.66-2.26.07-3.84-2.76-2.76-3.51-6.68-5-10.14a3.45,3.45,0,0,0,.54-4l-1.51,1c-2.22-.6-.82,1.21-1.22,1.83-2.4,4.8-4.26,9.89-7.73,14.11a3.29,3.29,0,0,0-4.2.94h0l-1.12,1.78c-.36,3.73,2.89,4.08,5.08,5.43,1.48,1.47,3.46.11,5.06.89.58,3.48-3.37,1.17-4,3.13l-1.1-.33h0c-1-1.13-2.48-1-3.68-1-1.66,0-.67.79-.1,1.3h0l1,1.9-2.27.12a2.83,2.83,0,0,1,.36.16l-.36-.16a5.51,5.51,0,0,0-.81.05c-2.56-1.13-3.65-.3-3.73,2.84h0a16.47,16.47,0,0,0,7.66,4.11,3.81,3.81,0,0,0,.05.59c.76,1.74,2.77,1.34,4,2.31-.92,3.68-3.86-.39-5.29,1.49l2,2.31-1.45,0c-3.4-2.44-6.82,1.33-10.22,0-1.09-.76-2.15-1.62-3.8-1.38.73,1.33,1.4,2.25,2.59,2.61a12.39,12.39,0,0,0,8.18,3.91c2.27,1.27,4.84.29,7.19,1,.33,1.91-1.15,2.31-2.4,2.9-1.35,1.46-3.61-.83-4.82,1.19l-3,1.89c-1.09,1.16-2.52,1.26-4,1.22-.6-.09-1.28-.69-1.76.07s-.22,1.51.68,2c1.62.81,3.14,1.87,5.07,1.83,4,1.6,8,1.21,12,0,1.59.2,3.85-.61,3.47,2.47-.18,1.42.22,2.47,2.07,2.53,2.18.07,2.45-1.17,2.27-2.79-.3-2.78,1.77-2,3.22-2.22l1.68.21h0c2,1.09,4.14.94,6.28.59,1.44.26,2.87.53,4-.75,4.65-1,4.83-1.22,4-3.81ZM343,390.5h0Z"/><path class="cls-3" d="M182.23,511.37h0l-5.92-.29h0c.58-.72,1.75-1.59,1.62-2.13-.34-1.34-1.75-1.39-3-1.34l-1.58-1c1.24-1.73,4.34,0,5.06-2.74a7.27,7.27,0,0,0,.38-.91c4.38-.36,7.29-3.25,10.35-5.74-2.61-2.27-6.48,2.05-7,.09-1.06-4-2.91-1.8-4.64-1.66l-2.76-1.51c-1.35-2.17-4.37-.17-5.74-2.3,1.42-1.13,3.71-.7,4.7-2.61a7.22,7.22,0,0,1,.08-.8,16.17,16.17,0,0,0,10-5.8c2-2.55-.5-1.51-1.58-1.38a1.78,1.78,0,0,1-.77.08c-.38-.71.19-3.23-1.58-1.32l-2.26,0L176,478.41h0c-1.27-1.94-3.08-.94-4.72-.87-2.14-1.32-6.92.42-5.66-4.86a5.66,5.66,0,0,0,5.73-.3c1.78.43,2.08-1.66,3.32-2,2.12-.56,4-1.8,3.8-3.86-.2-2.57-3.27-1.16-4.69-2.33-1.64,1.25-3.13-.32-4.72-.24.37-1.53,2-2.73.09-4.65-3.34-3.33-4.24-8.08-6.09-12.26a4.18,4.18,0,0,0,.66-4.85l-1.83,1.26c-2.68-.73-1,1.47-1.48,2.21-2.9,5.81-5.15,12-9.35,17.06a4,4,0,0,0-5.08,1.15h0L144.61,466c-.44,4.51,3.49,4.93,6.14,6.56,1.79,1.78,4.19.13,6.12,1.08.71,4.2-4.07,1.42-4.81,3.78l-1.33-.39h0c-1.2-1.37-3-1.2-4.44-1.22-2,0-.82,1-.13,1.58h0c.39.77.79,1.53,1.19,2.3l-2.73.14c.14.05.28.12.43.19l-.43-.19a6.58,6.58,0,0,0-1,.06c-3.09-1.36-4.41-.36-4.51,3.44h0c2.73,2.33,5.65,4.29,9.26,5,0,.24,0,.47.06.71.93,2.1,3.35,1.62,4.82,2.79-1.12,4.45-4.67-.47-6.39,1.81l2.37,2.78-1.75.06c-4.11-2.95-8.25,1.61-12.36-.05-1.32-.92-2.6-2-4.59-1.67.88,1.6,1.68,2.72,3.13,3.15,2.78,2.67,5.93,4.56,9.9,4.73,2.74,1.53,5.85.35,8.68,1.17.41,2.31-1.39,2.78-2.9,3.5-1.63,1.76-4.37-1-5.82,1.44l-3.6,2.28c-1.33,1.41-3.05,1.53-4.82,1.48-.73-.11-1.55-.83-2.13.08s-.27,1.83.83,2.37c2,1,3.79,2.27,6.12,2.22,4.83,1.93,9.66,1.46,14.49,0,1.93.24,4.65-.73,4.19,3-.21,1.72.27,3,2.51,3.06,2.63.08,3-1.41,2.75-3.37-.37-3.37,2.13-2.46,3.88-2.69l2,.25h0c2.43,1.32,5,1.14,7.6.72,1.73.32,3.47.64,4.85-.91,5.62-1.26,5.84-1.47,4.83-4.6Zm-20.5-65.59h0Z"/><path class="cls-3" d="M452,397.06c-3-2.09,2.25-2.44.59-4.07-2.44-2.37-3-5.55-4.25-8.57-1.93-4.74-1-10.38-4.78-14.44a1.86,1.86,0,0,1-.32-1.41c.94-5-2.48-8.29-4.65-12.28-.44,4.33-6.69,6.8-3.52,12.14-4.44,5.31-2.65,13.27-7.78,18.28-1.25,1.11-.06,1.43.62,1.91h0c.84,3.27-7.74,4.34-2,8.74a1.67,1.67,0,0,1-.34.36c-5.06,3-3.48,9.57-7.32,13.62,2.19-.3,3.5,2.34,5.4,1.42,4.4-2.15,9-.29,13.38-1l.14,5h0c.65,1.65,2,.73,3.05.8,2.56-1.39-.39-4.7,2.13-6.11,5.61,0,11.26,1.75,17.35-.16C455.94,406.75,456.76,400.37,452,397.06Z"/><path class="cls-3" d="M239.17,463.37c-2.68-1.84,2-2.16.52-3.58-2.15-2.1-2.67-4.9-3.75-7.55-1.69-4.18-.91-9.14-4.21-12.71a1.64,1.64,0,0,1-.27-1.25c.82-4.37-2.19-7.3-4.1-10.81-.39,3.82-5.89,6-3.1,10.69-3.91,4.68-2.33,11.68-6.84,16.1-1.11,1-.06,1.25.54,1.68h0c.74,2.87-6.82,3.82-1.79,7.69a1.83,1.83,0,0,1-.3.32c-4.45,2.67-3.06,8.42-6.44,12,1.92-.26,3.07,2.06,4.75,1.24,3.87-1.88,7.89-.25,11.78-.84l.12,4.39h0c.57,1.46,1.75.65,2.69.71,2.25-1.22-.34-4.14,1.87-5.38,4.94,0,9.92,1.54,15.28-.14C242.68,471.89,243.4,466.28,239.17,463.37Z"/><path class="cls-2" d="M967.74,195.91c-.48-1.29-1-2.58-1.45-3.87h0c2.6-.07,3.51-.86,1.28-3-.44-1.17-.88-2.34-1.31-3.51,1.74-1.35,2.24-2.54,0-4.08-3.36-2.33-8.94-4.54-1.44-8.72,1.25-.7.18-1-.18-1.27-4.32-2.9-7.84-6.08-4.52-11.88-6.17-5.91-5.46-15.54-11.6-21.47-.08-1.58,1.05-4.11-1.65-4-3.34.08-1.82,3.26-2.39,5.11-5.79,5.66-4.88,15-11.17,20.39-.2.17-.17.7-.12,1,.85,6.64.93,6.74-3.79,10.28-1.76,1.32-1.48,1.72.3,2.26-.79,1.37-.94,2.7.23,4,.4,1.32-3,.83-1.32,2.77-2.33,2.39-5.41,4.88.89,6.08.18,0,.14,1.23.21,1.89-6.65.29-4.28,4.73-3.82,8.3h0c-2.47,1-5,1.8-6.23,4.52,8.07,3.54,8.07,3.54-.08,10l4.1,2.3c-.56.35-1.09.73-1.6,1.12A336.42,336.42,0,0,1,972.19,199Z"/><path class="cls-2" d="M901.41,222.9c-.53-1.43-1.07-2.87-1.61-4.31h0c2.89-.08,3.91-1,1.42-3.33-.49-1.31-1-2.62-1.46-3.92,1.94-1.51,2.5-2.83,0-4.55-3.75-2.59-10-5-1.61-9.72,1.39-.78.19-1.15-.2-1.41-4.82-3.23-8.74-6.77-5-13.24-6.87-6.59-6.09-17.32-12.93-23.93-.09-1.75,1.17-4.58-1.84-4.5-3.72.1-2,3.64-2.66,5.7-6.45,6.3-5.44,16.71-12.45,22.72-.22.19-.18.78-.13,1.17.94,7.4,1,7.52-4.22,11.46-2,1.47-1.65,1.91.32,2.52-.87,1.52-1,3,.26,4.39.45,1.47-3.35.93-1.46,3.09-2.61,2.67-6,5.45,1,6.78.21,0,.17,1.37.24,2.1-7.41.33-4.77,5.28-4.25,9.25h0c-2.76,1.06-5.59,2-6.95,5.05,9,3.94,9,3.94-.09,11.18l4.57,2.57A27.81,27.81,0,0,0,844,250.4c-2.12,3.2-.75,5.4,2,5l.45-.06A392.46,392.46,0,0,1,901.58,223Z"/></svg>