<svg id="Layer_1" data-name="Layer 1" xmlns="http://www.w3.org/2000/svg" xmlns:xlink="http://www.w3.org/1999/xlink" viewBox="0 0 722.21 603.68"><defs><style>.cls-1{fill:url(#linear-gradient);}</style><linearGradient id="linear-gradient" x1="344.63" y1="-12.27" x2="357.79" y2="319.91" gradientUnits="userSpaceOnUse"><stop offset="0" stop-color="#1d2e71"/><stop offset="0.19" stop-color="#1d2e72" stop-opacity="0.95"/><stop offset="0.42" stop-color="#1d2e75" stop-opacity="0.82"/><stop offset="0.67" stop-color="#1d2e79" stop-opacity="0.6"/><stop offset="0.93" stop-color="#1d2e80" stop-opacity="0.3"/><stop offset="1" stop-color="#1d2e82" stop-opacity="0.2"/></linearGradient></defs><title>bg_03</title><path class="cls-1" d="M728.13,353.39c-5.48-3.54-23.64-82.41-29.59-85.1l-82.68-37.47A34.75,34.75,0,0,1,602,219.45l-38.9-54.06a34.53,34.53,0,0,0-19-13.19l-3.29-.89a19.94,19.94,0,0,1-5.48-2.43l-28-17.95L461.53,90.78a8.91,8.91,0,0,0-7.35-2.1l-2.47.42a11,11,0,0,1-4.74-.26L429.66,84a10,10,0,0,0-6.51.39l-.67.28a35,35,0,0,1-14.71,2.64l-6.1-.23a39,39,0,0,1-12.75-2.64l-1.1-.43a54.09,54.09,0,0,1-24.33-18.9l-2.67-3.74a58.65,58.65,0,0,0-19.93-17.51l-10.3-5.54a32.94,32.94,0,0,0-6.12-2.51l-8-2.33a30,30,0,0,1-12.25-7.08,59.73,59.73,0,0,0-24.77-14.21l-31.11-9a41,41,0,0,0-18.68-.94l-4.51.82a30.28,30.28,0,0,1-13.39-.58h0A72.74,72.74,0,0,0,183.28.61L180.39,1a92.9,92.9,0,0,0-24,6.47L143.09,13s-6.17,1.34-12.52,2.75A31.87,31.87,0,0,0,110,30.73,64.84,64.84,0,0,1,84.65,55L62,67.09A83.25,83.25,0,0,0,38.77,85.48c-7.37,8.36-18,19-26.2,21.31A60,60,0,0,0,0,112.13V603.68H728.13Z"/></svg>