<?xml version="1.0" standalone="no"?>
<!DOCTYPE svg PUBLIC "-//W3C//DTD SVG 20010904//EN"
 "http://www.w3.org/TR/2001/REC-SVG-20010904/DTD/svg10.dtd">
<svg version="1.0" xmlns="http://www.w3.org/2000/svg"
 width="266.000000pt" height="266.000000pt" viewBox="0 0 266.000000 266.000000"
 preserveAspectRatio="xMidYMid meet">
<metadata>
Created by potrace 1.11, written by Peter Selinger 2001-2013
</metadata>
<g transform="translate(0.000000,266.000000) scale(0.100000,-0.100000)"
fill="#000000" stroke="none">
<path d="M779 2245 c-1 -228 -3 -419 -4 -425 -1 -5 -3 -17 -4 -25 0 -9 -12
-26 -26 -39 -22 -21 -40 -24 -92 -18 -7 1 -26 20 -42 42 -28 38 -30 40 -43 22
-12 -17 -61 -76 -118 -142 l-21 -25 54 -52 c69 -66 136 -88 247 -80 152 10
247 88 285 232 12 49 15 134 15 492 l0 433 -125 0 -125 0 -1 -415z"/>
<path d="M1571 2638 c-5 -13 -93 -239 -196 -503 -103 -264 -197 -508 -211
-543 l-23 -63 130 3 131 3 42 105 42 104 204 1 204 0 42 -105 42 -105 131 -3
130 -3 -23 63 c-13 35 -49 131 -81 213 -31 83 -67 177 -80 210 -12 33 -55 146
-95 250 -40 105 -89 235 -110 290 l-38 100 -116 3 c-113 3 -116 2 -125 -20z
m207 -554 l49 -140 -132 0 -132 0 8 29 c5 16 34 102 66 190 l57 160 17 -49 c9
-27 39 -112 67 -190z"/>
<path d="M741 1298 c-5 -13 -57 -147 -116 -298 -59 -151 -118 -303 -131 -336
l-23 -62 32 8 c18 4 131 33 252 65 121 31 230 59 243 61 25 5 17 21 177 -331
15 -33 46 -100 69 -150 23 -50 57 -125 76 -167 19 -43 38 -78 41 -78 3 0 30
51 59 113 110 230 291 601 295 606 6 5 430 -106 493 -130 18 -7 22 -5 21 9 0
9 -62 172 -137 362 l-138 345 -602 3 -602 2 -9 -22z"/>
</g>
</svg>
