<svg id="Layer_1" data-name="Layer 1" xmlns="http://www.w3.org/2000/svg" xmlns:xlink="http://www.w3.org/1999/xlink" viewBox="0 0 46.03 67.76"><defs><style>.cls-1{fill:none;}.cls-1,.cls-2{clip-rule:evenodd;}.cls-2,.cls-3,.cls-5{fill:#fff;}.cls-4{clip-path:url(#clip-path);}.cls-5{fill-rule:evenodd;}.cls-6{clip-path:url(#clip-path-2);}.cls-7{clip-path:url(#clip-path-3);}.cls-8{isolation:isolate;}.cls-9{clip-path:url(#clip-path-4);}.cls-10{clip-path:url(#clip-path-5);}.cls-11{clip-path:url(#clip-path-6);}.cls-12{clip-path:url(#clip-path-7);}</style><clipPath id="clip-path"><path class="cls-1" d="M150.09,17.62a16.9,16.9,0,0,0-5.28,32.89c.84.15,1.14-.37,1.14-.82s0-1.46,0-2.87c-4.64,1-5.62-2.26-5.62-2.26a4.46,4.46,0,0,0-1.86-2.47c-1.51-1,.12-1,.12-1a3.53,3.53,0,0,1,2.56,1.74,3.53,3.53,0,0,0,4.85,1.4A3.71,3.71,0,0,1,147,42c-3.7-.42-7.6-1.87-7.6-8.34a6.56,6.56,0,0,1,1.72-4.53,6.1,6.1,0,0,1,.16-4.46s1.4-.45,4.59,1.73a15.61,15.61,0,0,1,8.36,0c3.19-2.18,4.59-1.73,4.59-1.73a6.1,6.1,0,0,1,.16,4.46,6.56,6.56,0,0,1,1.72,4.53c0,6.48-3.9,7.91-7.62,8.33a4,4,0,0,1,1.13,3.12c0,2.26,0,4.08,0,4.63s.3,1,1.15.81a16.9,16.9,0,0,0-5.29-32.88"/></clipPath><clipPath id="clip-path-2"><polygon class="cls-2" points="8.02 34.08 38.69 34.08 46.03 52.63 32.64 49.01 23.61 67.76 14.93 48.79 0.9 52.42 8.02 34.08"/></clipPath><clipPath id="clip-path-3"><rect class="cls-3" y="33.95" width="47" height="34"/></clipPath><clipPath id="clip-path-4"><path class="cls-2" d="M15.28,0V19.56c0,2.15-.12,5.34-2.4,7.66A7.65,7.65,0,0,1,7,29.38a7.76,7.76,0,0,1-4.4-1A11.4,11.4,0,0,1,0,25.93l4-4.65a7.19,7.19,0,0,0,1,1.59,2,2,0,0,0,1.58.65,2,2,0,0,0,1.5-.6c.79-.82.83-2.2.83-3.41V0Z"/></clipPath><clipPath id="clip-path-5"><rect class="cls-3" y="-0.05" width="16" height="30"/></clipPath><clipPath id="clip-path-6"><path class="cls-2" d="M37.21,23.3H26.75l-2.12,5.43H18L29.16,0H35L45.93,28.73H39.29Zm-1.74-5.08L32.06,8.57l-3.44,9.65Z"/></clipPath><clipPath id="clip-path-7"><rect class="cls-3" x="-122" y="-118.05" width="1440" height="1024"/></clipPath></defs><title>ja_logo</title><polygon class="cls-5" points="8.02 34.08 38.69 34.08 46.03 52.63 32.64 49.01 23.61 67.76 14.93 48.79 0.9 52.42 8.02 34.08"/><g class="cls-6"><rect class="cls-3" y="33.95" width="47" height="34"/><g class="cls-7"><rect class="cls-3" x="-4.1" y="29.08" width="55.13" height="43.69"/></g></g><g class="cls-8"><path class="cls-5" d="M15.28,0V19.56c0,2.15-.12,5.34-2.4,7.66A7.65,7.65,0,0,1,7,29.38a7.76,7.76,0,0,1-4.4-1A11.4,11.4,0,0,1,0,25.93l4-4.65a7.19,7.19,0,0,0,1,1.59,2,2,0,0,0,1.58.65,2,2,0,0,0,1.5-.6c.79-.82.83-2.2.83-3.41V0Z"/><g class="cls-9"><rect class="cls-3" y="-0.05" width="16" height="30"/><g class="cls-10"><rect class="cls-3" x="-5" y="-5" width="25.28" height="39.38"/></g></g></g><path class="cls-5" d="M37.21,23.3H26.75l-2.12,5.43H18L29.16,0H35L45.93,28.73H39.29Zm-1.74-5.08L32.06,8.57l-3.44,9.65Z"/><g class="cls-11"><rect class="cls-3" x="-122" y="-118.05" width="1440" height="1024"/><g class="cls-12"><rect class="cls-3" x="12.98" y="-5" width="37.95" height="38.73"/></g></g></svg>