<svg id="Layer_1" data-name="Layer 1" xmlns="http://www.w3.org/2000/svg" xmlns:xlink="http://www.w3.org/1999/xlink" viewBox="0 0 1920 1080"><defs><style>.cls-1,.cls-2{fill:none;}.cls-1{clip-rule:evenodd;}.cls-3{fill:url(#radial-gradient);}.cls-4,.cls-5,.cls-6{opacity:0.24;}.cls-4{fill:url(#linear-gradient);}.cls-5{fill:url(#linear-gradient-2);}.cls-6{fill:url(#linear-gradient-3);}.cls-7,.cls-8{opacity:0.58;}.cls-7{fill:url(#linear-gradient-4);}.cls-8{fill:#ede5ca;}.cls-9{fill:#256dba;}.cls-10,.cls-11,.cls-12,.cls-21,.cls-9{opacity:0.52;}.cls-10{fill:#2534ba;}.cls-11{fill:#2537ba;}.cls-12{fill:#bb2454;}.cls-13{fill:#c1a7e8;opacity:0.71;}.cls-14{fill:#6548cc;}.cls-15{fill:#ffebbd;}.cls-16{fill:#5646cc;}.cls-17{fill:#2d41a5;}.cls-18{opacity:0.4;fill:url(#linear-gradient-5);}.cls-19{fill:#1e2d96;}.cls-20{fill:#151f7a;}.cls-22{fill:url(#linear-gradient-6);}.cls-23{fill:#7b1434;}.cls-24,.cls-59{fill:#fff;}.cls-24{stroke:#000;}.cls-24,.cls-39,.cls-40,.cls-41,.cls-42,.cls-43,.cls-44,.cls-45,.cls-46,.cls-47,.cls-48,.cls-49,.cls-50,.cls-51,.cls-52,.cls-53,.cls-54,.cls-55,.cls-56{stroke-miterlimit:10;}.cls-25,.cls-26,.cls-27,.cls-28,.cls-29,.cls-30,.cls-31,.cls-32,.cls-33,.cls-34,.cls-35,.cls-36,.cls-37,.cls-38{opacity:0.78;}.cls-25{fill:url(#radial-gradient-2);}.cls-26{fill:url(#radial-gradient-3);}.cls-27{fill:url(#radial-gradient-4);}.cls-28{fill:url(#radial-gradient-5);}.cls-29{fill:url(#radial-gradient-6);}.cls-30{fill:url(#radial-gradient-7);}.cls-31{fill:url(#radial-gradient-8);}.cls-32{fill:url(#radial-gradient-9);}.cls-33{fill:url(#radial-gradient-10);}.cls-34{fill:url(#radial-gradient-11);}.cls-35{fill:url(#radial-gradient-12);}.cls-36{fill:url(#radial-gradient-13);}.cls-37{fill:url(#radial-gradient-14);}.cls-38{fill:url(#radial-gradient-15);}.cls-39,.cls-40{stroke-width:0.63px;}.cls-39{fill:url(#radial-gradient-16);stroke:url(#radial-gradient-17);}.cls-40{fill:url(#radial-gradient-18);stroke:url(#radial-gradient-19);}.cls-41,.cls-42{stroke-width:1.03px;}.cls-41{fill:url(#radial-gradient-20);stroke:url(#radial-gradient-21);}.cls-42{fill:url(#radial-gradient-22);stroke:url(#radial-gradient-23);}.cls-43,.cls-44{stroke-width:0.52px;}.cls-43{fill:url(#radial-gradient-24);stroke:url(#radial-gradient-25);}.cls-44{fill:url(#radial-gradient-26);stroke:url(#radial-gradient-27);}.cls-45,.cls-46{stroke-width:0.88px;}.cls-45{fill:url(#radial-gradient-28);stroke:url(#radial-gradient-29);}.cls-46{fill:url(#radial-gradient-30);stroke:url(#radial-gradient-31);}.cls-47,.cls-48{stroke-width:1.41px;}.cls-47{fill:url(#radial-gradient-32);stroke:url(#radial-gradient-33);}.cls-48{fill:url(#radial-gradient-34);stroke:url(#radial-gradient-35);}.cls-49,.cls-50{stroke-width:0.7px;}.cls-49{fill:url(#radial-gradient-36);stroke:url(#radial-gradient-37);}.cls-50{fill:url(#radial-gradient-38);stroke:url(#radial-gradient-39);}.cls-51,.cls-52{stroke-width:1.06px;}.cls-51{fill:url(#radial-gradient-40);stroke:url(#radial-gradient-41);}.cls-52{fill:url(#radial-gradient-42);stroke:url(#radial-gradient-43);}.cls-53,.cls-54{stroke-width:1.67px;}.cls-53{fill:url(#radial-gradient-44);stroke:url(#radial-gradient-45);}.cls-54{fill:url(#radial-gradient-46);stroke:url(#radial-gradient-47);}.cls-55,.cls-56{stroke-width:1.51px;}.cls-55{fill:url(#radial-gradient-48);stroke:url(#radial-gradient-49);}.cls-56{fill:url(#radial-gradient-50);stroke:url(#radial-gradient-51);}.cls-57{fill:#003;}.cls-58{fill:#e9dbc3;}.cls-60{clip-path:url(#clip-path);}.cls-61{clip-path:url(#clip-path-2);}.cls-62{clip-path:url(#clip-path-3);}.cls-63{fill:#fefefe;}.cls-64{clip-path:url(#clip-path-5);}.cls-65{isolation:isolate;}.cls-66{clip-path:url(#clip-path-7);}.cls-67{clip-path:url(#clip-path-8);}.cls-68{clip-path:url(#clip-path-10);}.cls-69{clip-path:url(#clip-path-12);}.cls-70{clip-path:url(#clip-path-13);}.cls-71{fill:#efefef;}.cls-72{clip-path:url(#clip-path-15);}</style><radialGradient id="radial-gradient" cx="856.91" cy="-11.28" fx="1725.8995698287295" fy="-2.9645540828137733" r="1689.15" gradientTransform="matrix(1, 0, 0, 0.6, -0.01, -5.31)" gradientUnits="userSpaceOnUse"><stop offset="0" stop-color="#efb982"/><stop offset="0.61" stop-color="#d56e7f"/><stop offset="0.65" stop-color="#ce6e83"/><stop offset="0.72" stop-color="#bb6e8c"/><stop offset="0.8" stop-color="#9b6e9d"/><stop offset="0.89" stop-color="#6f6eb3"/><stop offset="0.95" stop-color="#4c6ec5"/></radialGradient><linearGradient id="linear-gradient" x1="1263.6" y1="57.82" x2="1263.6" y2="779.66" gradientUnits="userSpaceOnUse"><stop offset="0" stop-color="#ede5ca"/><stop offset="0.15" stop-color="#ede4c9" stop-opacity="0.98"/><stop offset="0.29" stop-color="#ede1c4" stop-opacity="0.93"/><stop offset="0.44" stop-color="#edddbd" stop-opacity="0.85"/><stop offset="0.58" stop-color="#eed6b2" stop-opacity="0.74"/><stop offset="0.72" stop-color="#eecea5" stop-opacity="0.59"/><stop offset="0.86" stop-color="#eec495" stop-opacity="0.41"/><stop offset="1" stop-color="#efb982" stop-opacity="0.2"/></linearGradient><linearGradient id="linear-gradient-2" x1="1199.8" y1="107.88" x2="1199.8" y2="829.71" xlink:href="#linear-gradient"/><linearGradient id="linear-gradient-3" x1="1320.89" y1="77.88" x2="1320.89" y2="799.71" xlink:href="#linear-gradient"/><linearGradient id="linear-gradient-4" x1="1202.04" y1="170.15" x2="1327.04" y2="674.92" xlink:href="#linear-gradient"/><linearGradient id="linear-gradient-5" x1="514.56" y1="522.68" x2="514.56" y2="878.18" gradientUnits="userSpaceOnUse"><stop offset="0" stop-color="#ffe9fe" stop-opacity="0.8"/><stop offset="0.05" stop-color="#f4d8ee" stop-opacity="0.75"/><stop offset="0.23" stop-color="#d29fbb" stop-opacity="0.58"/><stop offset="0.4" stop-color="#b57091" stop-opacity="0.45"/><stop offset="0.57" stop-color="#9f4b70" stop-opacity="0.34"/><stop offset="0.73" stop-color="#8f3158" stop-opacity="0.26"/><stop offset="0.88" stop-color="#85214a" stop-opacity="0.22"/><stop offset="1" stop-color="#821c45" stop-opacity="0.2"/></linearGradient><linearGradient id="linear-gradient-6" x1="349.54" y1="225.28" x2="362.79" y2="776.68" gradientUnits="userSpaceOnUse"><stop offset="0" stop-color="#1d2e71"/><stop offset="0.46" stop-color="#1d2e71" stop-opacity="0.98"/><stop offset="0.63" stop-color="#1d2e73" stop-opacity="0.92"/><stop offset="0.75" stop-color="#1d2e75" stop-opacity="0.81"/><stop offset="0.84" stop-color="#1d2e78" stop-opacity="0.66"/><stop offset="0.93" stop-color="#1d2e7d" stop-opacity="0.46"/><stop offset="1" stop-color="#1d2e82" stop-opacity="0.21"/><stop offset="1" stop-color="#1d2e82" stop-opacity="0.2"/></linearGradient><radialGradient id="radial-gradient-2" cx="599.58" cy="233.97" r="6.43" gradientUnits="userSpaceOnUse"><stop offset="0" stop-color="#ede5ca"/><stop offset="0.12" stop-color="#ede1c3" stop-opacity="0.91"/><stop offset="0.37" stop-color="#eed7b3" stop-opacity="0.67"/><stop offset="0.73" stop-color="#eec698" stop-opacity="0.3"/><stop offset="1" stop-color="#efb982" stop-opacity="0"/></radialGradient><radialGradient id="radial-gradient-3" cx="666.98" cy="122.49" r="6.43" xlink:href="#radial-gradient-2"/><radialGradient id="radial-gradient-4" cx="933.41" cy="676.93" r="6.43" xlink:href="#radial-gradient-2"/><radialGradient id="radial-gradient-5" cx="1433.45" cy="702.27" r="6.43" xlink:href="#radial-gradient-2"/><radialGradient id="radial-gradient-6" cx="351.43" cy="138.99" r="6.43" xlink:href="#radial-gradient-2"/><radialGradient id="radial-gradient-7" cx="498.08" cy="240.65" r="6.43" xlink:href="#radial-gradient-2"/><radialGradient id="radial-gradient-8" cx="92.49" cy="92.2" r="6.43" xlink:href="#radial-gradient-2"/><radialGradient id="radial-gradient-9" cx="939.84" cy="128.92" r="6.43" xlink:href="#radial-gradient-2"/><radialGradient id="radial-gradient-10" cx="783.36" cy="233.97" r="6.43" xlink:href="#radial-gradient-2"/><radialGradient id="radial-gradient-11" cx="1811.08" cy="69.6" r="6.43" xlink:href="#radial-gradient-2"/><radialGradient id="radial-gradient-12" cx="1375.49" cy="25.3" r="6.43" gradientTransform="translate(177.12 -560.29) rotate(23.64)" xlink:href="#radial-gradient-2"/><radialGradient id="radial-gradient-13" cx="1553.64" cy="68.35" r="6.43" gradientTransform="translate(177.12 -560.29) rotate(23.64)" xlink:href="#radial-gradient-2"/><radialGradient id="radial-gradient-14" cx="1395.59" cy="25.05" r="6.43" gradientTransform="translate(177.12 -560.29) rotate(23.64)" xlink:href="#radial-gradient-2"/><radialGradient id="radial-gradient-15" cx="620.61" cy="741.52" r="6.43" gradientTransform="translate(177.12 -560.29) rotate(23.64)" xlink:href="#radial-gradient-2"/><radialGradient id="radial-gradient-16" cx="282.22" cy="289.35" r="6.66" xlink:href="#radial-gradient-2"/><radialGradient id="radial-gradient-17" cx="282.22" cy="289.35" r="6.66" xlink:href="#radial-gradient-2"/><radialGradient id="radial-gradient-18" cx="442.73" cy="-18.84" r="6.66" gradientTransform="translate(263.38 -153.38) rotate(90)" xlink:href="#radial-gradient-2"/><radialGradient id="radial-gradient-19" cx="442.73" cy="-18.84" r="6.66" gradientTransform="translate(263.38 -153.38) rotate(90)" xlink:href="#radial-gradient-2"/><radialGradient id="radial-gradient-20" cx="482.23" cy="114.79" r="10.93" xlink:href="#radial-gradient-2"/><radialGradient id="radial-gradient-21" cx="482.23" cy="114.79" r="10.93" xlink:href="#radial-gradient-2"/><radialGradient id="radial-gradient-22" cx="268.17" cy="-218.86" r="10.93" gradientTransform="translate(263.38 -153.38) rotate(90)" xlink:href="#radial-gradient-2"/><radialGradient id="radial-gradient-23" cx="268.17" cy="-218.86" r="10.93" gradientTransform="translate(263.38 -153.38) rotate(90)" xlink:href="#radial-gradient-2"/><radialGradient id="radial-gradient-24" cx="745.35" cy="367.88" r="5.46" xlink:href="#radial-gradient-2"/><radialGradient id="radial-gradient-25" cx="745.35" cy="367.88" r="5.47" xlink:href="#radial-gradient-2"/><radialGradient id="radial-gradient-26" cx="521.25" cy="-481.98" r="5.46" gradientTransform="translate(263.38 -153.38) rotate(90)" xlink:href="#radial-gradient-2"/><radialGradient id="radial-gradient-27" cx="521.25" cy="-481.98" r="5.47" gradientTransform="translate(263.38 -153.38) rotate(90)" xlink:href="#radial-gradient-2"/><radialGradient id="radial-gradient-28" cx="819.77" cy="45.79" r="9.3" xlink:href="#radial-gradient-2"/><radialGradient id="radial-gradient-29" cx="819.77" cy="45.79" r="9.31" xlink:href="#radial-gradient-2"/><radialGradient id="radial-gradient-30" cx="199.17" cy="-556.39" r="9.3" gradientTransform="translate(263.38 -153.38) rotate(90)" xlink:href="#radial-gradient-2"/><radialGradient id="radial-gradient-31" cx="199.17" cy="-556.39" r="9.31" gradientTransform="translate(263.38 -153.38) rotate(90)" xlink:href="#radial-gradient-2"/><radialGradient id="radial-gradient-32" cx="1066.56" cy="48.48" r="14.94" xlink:href="#radial-gradient-2"/><radialGradient id="radial-gradient-33" cx="1066.56" cy="48.48" r="14.94" xlink:href="#radial-gradient-2"/><radialGradient id="radial-gradient-34" cx="201.85" cy="-803.18" r="14.94" gradientTransform="translate(263.38 -153.38) rotate(90)" xlink:href="#radial-gradient-2"/><radialGradient id="radial-gradient-35" cx="201.85" cy="-803.18" r="14.94" gradientTransform="translate(263.38 -153.38) rotate(90)" xlink:href="#radial-gradient-2"/><radialGradient id="radial-gradient-36" cx="1784.78" cy="289.35" r="7.47" xlink:href="#radial-gradient-2"/><radialGradient id="radial-gradient-37" cx="1784.78" cy="289.35" r="7.47" xlink:href="#radial-gradient-2"/><radialGradient id="radial-gradient-38" cx="442.73" cy="-1521.4" r="7.47" gradientTransform="translate(263.38 -153.38) rotate(90)" xlink:href="#radial-gradient-2"/><radialGradient id="radial-gradient-39" cx="442.73" cy="-1521.4" r="7.47" gradientTransform="translate(263.38 -153.38) rotate(90)" xlink:href="#radial-gradient-2"/><radialGradient id="radial-gradient-40" cx="1472.84" cy="156.25" r="11.28" xlink:href="#radial-gradient-2"/><radialGradient id="radial-gradient-41" cx="1472.84" cy="156.25" r="11.28" xlink:href="#radial-gradient-2"/><radialGradient id="radial-gradient-42" cx="309.62" cy="-1209.47" r="11.28" gradientTransform="translate(263.38 -153.38) rotate(90)" xlink:href="#radial-gradient-2"/><radialGradient id="radial-gradient-43" cx="309.62" cy="-1209.47" r="11.28" gradientTransform="translate(263.38 -153.38) rotate(90)" xlink:href="#radial-gradient-2"/><radialGradient id="radial-gradient-44" cx="1715.01" cy="140.3" r="17.76" xlink:href="#radial-gradient-2"/><radialGradient id="radial-gradient-45" cx="1715.01" cy="140.3" r="17.77" xlink:href="#radial-gradient-2"/><radialGradient id="radial-gradient-46" cx="293.67" cy="-1451.64" r="17.76" gradientTransform="translate(263.38 -153.38) rotate(90)" xlink:href="#radial-gradient-2"/><radialGradient id="radial-gradient-47" cx="293.67" cy="-1451.64" r="17.77" gradientTransform="translate(263.38 -153.38) rotate(90)" xlink:href="#radial-gradient-2"/><radialGradient id="radial-gradient-48" cx="223.62" cy="92.2" r="15.98" xlink:href="#radial-gradient-2"/><radialGradient id="radial-gradient-49" cx="223.62" cy="92.2" r="15.99" xlink:href="#radial-gradient-2"/><radialGradient id="radial-gradient-50" cx="245.57" cy="39.76" r="15.98" gradientTransform="translate(263.38 -153.38) rotate(90)" xlink:href="#radial-gradient-2"/><radialGradient id="radial-gradient-51" cx="245.57" cy="39.76" r="15.99" gradientTransform="translate(263.38 -153.38) rotate(90)" xlink:href="#radial-gradient-2"/><clipPath id="clip-path"><path class="cls-1" d="M118.48,224.89a16.88,16.88,0,1,0,16.69,16.88A16.79,16.79,0,0,0,118.48,224.89Zm-7.88,24.46h3.56V237.79H110.6Zm1.84-12.89a2.16,2.16,0,0,1-2.21-2.3,2.19,2.19,0,0,1,2.28-2.25,2.22,2.22,0,0,1,2.22,2.31A2.19,2.19,0,0,1,112.44,236.46Zm15.2,13.08h-3.72c0-.59,0-1.15,0-1.71,0-1.74,0-3.48-.14-5.22-.08-1.27-.61-1.79-1.51-1.78a2,2,0,0,0-2,1.92c-.11,1.1-.15,2.21-.18,3.31s0,2.16,0,3.24c0,0,0,.11-.1.22h-3.55V237.9h3.43c0,.37.07.7.12,1.19a4.69,4.69,0,0,1,4.88-1.53,3.4,3.4,0,0,1,2.76,3.51C127.72,243.85,127.64,246.64,127.64,249.54Z"/></clipPath><clipPath id="clip-path-2"><rect class="cls-2" x="-26.41" y="-21.1" width="1440" height="1024"/></clipPath><clipPath id="clip-path-3"><path class="cls-1" d="M118.48,178.35a16.9,16.9,0,0,0-5.28,32.89c.84.15,1.14-.37,1.14-.82s0-1.46,0-2.87c-4.64,1-5.62-2.26-5.62-2.26a4.46,4.46,0,0,0-1.86-2.47c-1.51-1,.12-1,.12-1a3.51,3.51,0,0,1,2.55,1.74,3.54,3.54,0,0,0,4.86,1.4,3.6,3.6,0,0,1,1.06-2.26c-3.71-.42-7.6-1.87-7.6-8.34a6.56,6.56,0,0,1,1.72-4.53,6,6,0,0,1,.16-4.46s1.4-.46,4.59,1.73a15.61,15.61,0,0,1,8.36,0c3.19-2.19,4.58-1.73,4.58-1.73a6.07,6.07,0,0,1,.17,4.46,6.56,6.56,0,0,1,1.72,4.53c0,6.48-3.91,7.91-7.63,8.33a4,4,0,0,1,1.14,3.12c0,2.26,0,4.08,0,4.63s.3,1,1.15.81a16.9,16.9,0,0,0-5.29-32.88"/></clipPath><clipPath id="clip-path-5"><rect class="cls-2" x="96.48" y="131.03" width="45.13" height="33.69"/></clipPath><clipPath id="clip-path-7"><rect class="cls-2" x="95.59" y="130.9" width="47" height="34"/></clipPath><clipPath id="clip-path-8"><polygon class="cls-1" points="103.61 131.03 134.27 131.03 141.61 149.59 128.23 145.96 119.2 164.72 110.52 145.75 96.48 149.37 103.61 131.03"/></clipPath><clipPath id="clip-path-10"><rect class="cls-2" x="95.59" y="96.96" width="15.28" height="29.38"/></clipPath><clipPath id="clip-path-12"><rect class="cls-2" x="95.59" y="96.9" width="16" height="30"/></clipPath><clipPath id="clip-path-13"><path class="cls-1" d="M110.87,97v19.55c0,2.15-.12,5.34-2.41,7.67a7.65,7.65,0,0,1-5.85,2.15,7.88,7.88,0,0,1-4.41-1,11.58,11.58,0,0,1-2.61-2.41l4-4.66a7.53,7.53,0,0,0,1,1.6,2,2,0,0,0,1.58.64,1.92,1.92,0,0,0,1.49-.6c.79-.82.83-2.2.83-3.4V97Z"/></clipPath><clipPath id="clip-path-15"><path class="cls-1" d="M132.8,120.26H122.33l-2.12,5.43h-6.64L124.74,97h5.86l10.92,28.73h-6.64Zm-1.75-5.08-3.4-9.65-3.45,9.65Z"/></clipPath></defs><title>Desktop lg</title><polygon id="Sky" class="cls-3" points="1920 947.84 0.06 947.84 0.06 0.03 1920 0 1920 947.84"/><circle class="cls-4" cx="1263.6" cy="418.74" r="360.92"/><circle class="cls-5" cx="1199.8" cy="468.8" r="360.92"/><circle class="cls-6" cx="1320.89" cy="438.79" r="360.92"/><circle class="cls-7" cx="1263.6" cy="418.74" r="259.95"/><path class="cls-8" d="M1017.81,503.21c-31.26-140.12,57-279,197.1-310.32,129.23-28.83,257.45,44,301.13,165.41-32.8-138.06-170.55-224.57-309.48-193.57-140.12,31.26-228.37,170.2-197.1,310.32a262.92,262.92,0,0,0,9.19,31.69C1018.37,505.56,1018.08,504.39,1017.81,503.21Z"/><path class="cls-9" d="M1823.87,393c-129.59,35.25-153.78-9.42-251.49,27.09C1438.87,470,1363.57,598.4,1320.89,698.69h599.05V356A486.39,486.39,0,0,1,1823.87,393Z"/><path class="cls-10" d="M0,165.28c40.7,32.28,104.58,72.8,188.11,83.61,69.56,9,85.76-11.28,149-10.91,147.33.87,174.32,111.45,352.59,159.94C811.47,431,834.21,389.06,926,423.36c125.42,46.86,196.17,167.5,236.27,261.72H0Z"/><path class="cls-11" d="M544.48,471c-.4-.35-1.34-.09-2-.1h0l.36-1.07a2.23,2.23,0,0,0-2.21-2.77c.15-.94.25-2.23-.88-2.23-3.37,0-5.08-2.32-7-4.46,1.23-.68,2.69-1,3.42-2.4h0c-.06-.92-.18-1.81-1.32-2l-4.13-1.48c-.78-1.76-4.44-3.66-2.85-4.57,4.34-2.46.86-2.58-.44-3.87s-3.32-2.24-3.91-4.35c-1.14-4-2.48-8-3.78-11.89-1.88-5.63-6.2-9.33-8.05-14.83-.94,3.56-4.28,5-5.59,8.5-1,2.54.64,6.6-3.1,8.42-1.85.89-2.7,2.76-3.36,5.3-.81,3.08-.13,7.68-4.34,9.47l-3.91,1.52c-1.27,0-1.26,1-1.38,1.86,1.2,1.88,3.2,1.11,4.86,1.47l-2.78,3.17a5.66,5.66,0,0,0-3.64,1.9l4.88,1.62c-2.24,3.3-5.86,4.7-9.11,6.62l-2.55.56a2.37,2.37,0,0,0,2.37.79c.11.69.21,1.38.31,2.07l-5.48,2.44c-1.45,1.19-.54,1.74.64,1.91,1.57.22,3.16.2,4.75.29l.17-.14-.09,1.12c-.78.5-3.33.85-.87,1.94a7.62,7.62,0,0,0,6.76-.6h.47l.41-.24c7,1.71-1.52,4.27,1.12,6.71a30.23,30.23,0,0,0,10.89-1.79c7-2.61,5,1.66,5,4.63,0,2.66.37,4,3.6,4.07,3.54,0,3.38-1.92,3.3-4.28-.06-2,0-3.95,0-5.88,2.67-.25,4.24,3,6.74,1.1.34,0,.69,0,1,.06.18.34.34.81.7.12h0l.43-.26h0c2.92.51,5.4,3.09,8.54,2.17.61-2.56-6.28-3.77-.73-6.71h0a1,1,0,0,0,.91.26,7.37,7.37,0,0,0,6.32.76c2.55-.83.35-1.41-.59-1.85L537,472.76l1.3-.53a1.51,1.51,0,0,1,.3-.1l-.3.1a9.61,9.61,0,0,0,5.49.25C544.44,472.35,545.37,471.81,544.48,471Z"/><path class="cls-11" d="M372.87,416.71c-.4-.35-1.34-.08-2-.1h0l.36-1.07a2.23,2.23,0,0,0-2.21-2.77c.15-.94.25-2.23-.88-2.23-3.37,0-5.08-2.32-7-4.46,1.23-.67,2.69-1,3.42-2.39h0c-.06-.93-.18-1.82-1.32-2.05l-4.13-1.48c-.78-1.76-4.45-3.66-2.85-4.57,4.34-2.46.86-2.58-.44-3.86s-3.32-2.25-3.91-4.35c-1.14-4-2.48-8-3.78-11.9-1.88-5.63-6.2-9.33-8.05-14.82-.94,3.56-4.28,5-5.59,8.49-1,2.54.64,6.6-3.1,8.42-1.85.9-2.7,2.76-3.37,5.3-.8,3.09-.12,7.68-4.33,9.47l-3.91,1.52c-1.28,0-1.26,1-1.38,1.86,1.2,1.88,3.2,1.11,4.86,1.47l-2.78,3.17a5.7,5.7,0,0,0-3.64,1.9l4.88,1.63c-2.24,3.29-5.86,4.69-9.11,6.61l-2.56.57a2.41,2.41,0,0,0,2.38.78c.11.69.21,1.38.31,2.07l-5.48,2.44c-1.45,1.19-.55,1.74.64,1.91,1.56.22,3.16.2,4.74.29l.18-.14-.09,1.13c-.78.49-3.33.85-.87,1.93a7.62,7.62,0,0,0,6.76-.6h.47l.41-.24c7,1.71-1.52,4.27,1.12,6.71a30.23,30.23,0,0,0,10.89-1.79c7-2.6,5,1.66,5,4.64,0,2.65.37,4,3.6,4.06,3.54,0,3.38-1.92,3.3-4.28-.06-2,0-3.94,0-5.88,2.67-.25,4.24,3,6.74,1.1.34,0,.69,0,1,.06.18.34.34.81.7.12h0l.42-.26h0c2.93.52,5.41,3.09,8.54,2.17.62-2.55-6.27-3.77-.72-6.71h0a1,1,0,0,0,.91.26,7.34,7.34,0,0,0,6.32.76c2.55-.82.35-1.41-.59-1.84l-1.33-1.34,1.31-.53a1.32,1.32,0,0,1,.3-.09l-.3.09a9.61,9.61,0,0,0,5.49.26C372.83,418,373.76,417.48,372.87,416.71Z"/><path class="cls-11" d="M632.58,466c-.4-.35-1.34-.09-2-.1h0l.36-1.07a2.23,2.23,0,0,0-2.21-2.77c.15-.94.25-2.23-.88-2.23-3.37,0-5.08-2.32-7-4.46,1.23-.68,2.69-1,3.42-2.4h0c-.06-.92-.18-1.81-1.32-2l-4.13-1.48c-.78-1.76-4.44-3.66-2.85-4.57,4.34-2.46.86-2.58-.44-3.87s-3.32-2.24-3.91-4.35c-1.13-4-2.48-8-3.78-11.89-1.88-5.63-6.2-9.33-8.05-14.83-.94,3.56-4.28,5-5.59,8.5-1,2.54.64,6.6-3.1,8.42-1.85.89-2.7,2.76-3.36,5.3-.81,3.08-.13,7.68-4.34,9.47l-3.91,1.52c-1.27,0-1.26,1-1.38,1.86,1.2,1.88,3.2,1.11,4.86,1.47l-2.78,3.17a5.66,5.66,0,0,0-3.64,1.9l4.88,1.62c-2.24,3.3-5.86,4.7-9.1,6.62l-2.56.56a2.37,2.37,0,0,0,2.37.79c.11.69.21,1.38.31,2.07L567,465.69c-1.45,1.19-.54,1.74.64,1.91,1.57.22,3.16.2,4.75.29l.17-.14-.09,1.12c-.78.5-3.33.85-.87,1.94a7.62,7.62,0,0,0,6.76-.6h.47l.41-.24c7,1.71-1.52,4.27,1.12,6.71a30.23,30.23,0,0,0,10.89-1.79c7-2.61,5,1.66,5,4.63,0,2.66.37,4,3.6,4.07,3.54,0,3.38-1.92,3.3-4.28-.06-2,0-3.95,0-5.88,2.67-.25,4.24,3,6.74,1.1.34,0,.69,0,1,.06.18.34.34.81.7.12h0l.43-.26h0c2.92.51,5.4,3.09,8.54,2.17.61-2.56-6.28-3.77-.73-6.71h0a1,1,0,0,0,.91.26,7.37,7.37,0,0,0,6.32.76c2.55-.83.35-1.41-.59-1.85l-1.32-1.33,1.3-.53a1,1,0,0,1,.3-.09l-.3.09a9.61,9.61,0,0,0,5.49.25C632.54,467.35,633.47,466.81,632.58,466Z"/><path class="cls-11" d="M1627.1,563.71c-.41-.35-1.35-.08-2-.1h0l.36-1.07a2.23,2.23,0,0,0-2.22-2.77c.16-.94.25-2.23-.87-2.23-3.37,0-5.08-2.32-7-4.46,1.23-.67,2.68-1,3.42-2.39h0c-.07-.93-.18-1.82-1.33-2.05l-4.12-1.48c-.78-1.76-4.45-3.66-2.85-4.57,4.33-2.46.85-2.58-.45-3.86s-3.32-2.25-3.91-4.35c-1.13-4-2.47-8-3.77-11.9-1.88-5.63-6.21-9.33-8.06-14.83-.94,3.56-4.28,5-5.59,8.5-1,2.54.65,6.6-3.1,8.42-1.85.9-2.7,2.76-3.36,5.3-.81,3.09-.12,7.68-4.34,9.47l-3.9,1.52c-1.28,0-1.27,1-1.39,1.86,1.21,1.88,3.21,1.11,4.87,1.47l-2.78,3.17a5.73,5.73,0,0,0-3.65,1.9l4.89,1.63c-2.25,3.29-5.87,4.69-9.11,6.61l-2.56.57a2.41,2.41,0,0,0,2.38.78c.1.69.21,1.38.31,2.07l-5.48,2.44c-1.45,1.19-.55,1.74.64,1.91,1.56.22,3.16.2,4.74.29l.17-.14-.09,1.13c-.77.49-3.32.85-.87,1.93a7.62,7.62,0,0,0,6.76-.6h.47l.41-.24c7,1.71-1.52,4.27,1.12,6.71a30.28,30.28,0,0,0,10.9-1.79c7-2.61,5,1.66,5,4.64,0,2.65.38,4,3.6,4.06,3.54,0,3.38-1.92,3.31-4.28-.06-2,0-4,0-5.88,2.67-.25,4.24,3,6.73,1.1.35,0,.69,0,1,.06.18.34.33.81.7.12h0l.42-.26h0c2.92.51,5.41,3.09,8.54,2.17.62-2.56-6.28-3.77-.72-6.71h0a1,1,0,0,0,.91.26,7.34,7.34,0,0,0,6.32.76c2.54-.82.35-1.41-.6-1.84l-1.32-1.34,1.3-.53.3-.09-.3.09a9.64,9.64,0,0,0,5.5.25C1627.05,565,1628,564.48,1627.1,563.71Z"/><path class="cls-12" d="M1357,689.74c-.4-.35-1.34-.08-2-.09h0l.36-1.07a2.23,2.23,0,0,0-2.21-2.78c.15-.93.25-2.23-.87-2.23-3.38,0-5.09-2.31-7-4.45,1.22-.68,2.68-1,3.41-2.4h0c-.06-.92-.17-1.82-1.32-2l-4.13-1.49c-.77-1.75-4.44-3.66-2.84-4.57,4.33-2.46.85-2.58-.45-3.86s-3.32-2.25-3.91-4.35c-1.13-4-2.48-8-3.77-11.9-1.89-5.62-6.21-9.32-8.06-14.82-.94,3.56-4.28,5-5.59,8.49-1,2.54.64,6.61-3.1,8.42-1.85.9-2.7,2.77-3.36,5.3-.81,3.09-.13,7.69-4.34,9.48l-3.9,1.52c-1.28,0-1.27,1-1.39,1.86,1.2,1.87,3.2,1.11,4.86,1.47l-2.78,3.16a5.72,5.72,0,0,0-3.64,1.91l4.88,1.62c-2.24,3.29-5.86,4.69-9.1,6.61l-2.56.57a2.35,2.35,0,0,0,2.37.78c.11.7.21,1.39.32,2.08l-5.49,2.43c-1.44,1.19-.54,1.75.64,1.92,1.57.22,3.16.2,4.75.28l.17-.13-.09,1.12c-.77.5-3.33.85-.87,1.93a7.65,7.65,0,0,0,6.76-.59h.47l.41-.23c7,1.71-1.52,4.27,1.12,6.71a30.29,30.29,0,0,0,10.9-1.8c7-2.6,5,1.67,5,4.64,0,2.66.37,4,3.6,4.07,3.54,0,3.38-1.92,3.3-4.28-.06-2,0-3.95,0-5.89,2.67-.25,4.24,3,6.74,1.1.34,0,.69,0,1,.06.18.35.34.82.7.12h0l.43-.26h0c2.92.52,5.4,3.09,8.54,2.18.61-2.56-6.28-3.78-.73-6.71h0a1,1,0,0,0,.91.25,7.31,7.31,0,0,0,6.32.76c2.55-.82.35-1.4-.59-1.84l-1.32-1.34,1.3-.53.3-.09-.3.09a9.52,9.52,0,0,0,5.49.26C1357,691.05,1357.93,690.51,1357,689.74Z"/><polygon class="cls-13" points="547.29 363.14 498.08 523.07 599.58 523.07 547.29 363.14"/><polygon class="cls-13" points="612.51 417.66 573.49 544.46 653.97 544.46 612.51 417.66"/><path class="cls-14" d="M881,446.39c.37,2.77.13,5.68,1.87,8.42.72-2.34,1.38-4.48,2-6.61.49,7.17,5,12.43,8,18.3,2.92,5.71,7.68,6.9,13.73,4.3,2-.86,1.86-2.28,1.75-3.68-.58-7.07,3.47-13.88.73-21.2-1.07-2.87,4-4.91,2.79-8.82-.86-2.72.74-5.72-1.34-8.69s2.25-4.39,3.05-7c2.6-8.64,2.88-17.76,6.9-26.4.64,5,1.2,10,2,15,.78,5.17-.2,10.76,4,15.11,1,1.05.52,2.95.17,4.74-.93,4.72-1.45,9.63.78,14.3.46,1,.89,2.43.49,3.26-2.71,5.68-.86,11.52-.8,17.27,0,3.76-1.13,8.1,4.5,9.59,1,.26,2.05,3.41,1.7,4.91a62.07,62.07,0,0,0-.93,24.09c-4.18,2.81-9,2.63-13.69,2.81-17.82.7-35.64-.5-53.47,0-3.13.09-6.08.31-7.87,3.39-4.86,2.59-9.72.31-14.59,0a46.59,46.59,0,0,0-8.41.47c-6.4,1.2-11.44-.94-14.68-6.78-.91-8.24.67-16.54-.93-24.82-.48-2.52,1.52-6.07,4-6.88,5.88-1.89,9.34-4.71,9-11.46-.17-2.91,1.1-5.91,1.79-9.24,2.83,1.85,1.41,5.4,3.82,7.73l3.69-17.85,1-.22c.87,2.31,1.81,4.59,2.6,6.93.54,1.6,1.29,2.54,3.22,2.44s2.77-1.06,2.6-2.84c-.43-4.41,3.3.58,3.36-1.44.07-2.45,2.14-4.71,1.82-6.51-1.53-8.76,3.22-16.34,3.91-24.61,1.24-.65,1.51.38,1.95,1.11-.09,7.78,5,14.45,5,22.36,0,.86,2.09,3.78,2.47,6.11.22,1.36,1.11,2.07,2.37,1.61,3.2-1.16,5.33.1,7,2.69a1.11,1.11,0,0,0,.38-.25,2.13,2.13,0,0,0,.25-.5C879.45,446.75,879.67,445.64,881,446.39Z"/><rect class="cls-15" x="854.66" y="481.85" width="13.37" height="21.12" rx="6.69"/><path class="cls-16" d="M1880.17,686.87a105.77,105.77,0,0,0-32-14.36c-18.73-4.88-46.41-12.07-50-13-4.13-1-22.22,1-31,2.13-3,.37-5.91.87-8.84,1.5-17.38,3.7-84.42,17.65-88,12.86-4.12-5.5-90.71,1.38-96.21,0-4.31-1.08-39-14-53.84-19.51q-6.68-2.49-13.56-4.35L1428.26,631a106.19,106.19,0,0,1-30.5-13.7l-13.12-8.61a106,106,0,0,0-36.23-15.09c-16.19-3.42-37.71-8-45.08-9.62-5.53-1.23-15.48-6.05-24.78-11a106,106,0,0,0-49.7-12.38h0a105.94,105.94,0,0,0-48.79,11.9l-7.73,4a106.11,106.11,0,0,1-13.32,5.78c-19,6.74-70.84,25-74.21,25V1080h835.14V712.76C1912.26,708.17,1893.52,695.78,1880.17,686.87Z"/><path class="cls-17" d="M1415,746.37l-35.68-13.5a67.89,67.89,0,0,1-26.13-17.72l-11-12.07-43.58-32.83a94.5,94.5,0,0,0-20.09-11.58L1217.73,633l-87.41-44.88a108.91,108.91,0,0,1-25.86-18.5l-67.78-65.43a60.92,60.92,0,0,0-17.2-11.68L994.08,481a49.91,49.91,0,0,0-21.7-4.45l-16.86.36a40.79,40.79,0,0,0-8.73,1.13l-65.11,15.71a105.57,105.57,0,0,1-21.82,2.92c-8.54.24-19.1.36-21.47-.43-2.71-.9-26.83-16.84-43-27.65a105.77,105.77,0,0,0-32-14.36c-18.74-4.87-46.42-12.07-50-13-4.13-1-22.23,1-31,2.14q-4.46.56-8.85,1.49c-17.37,3.71-84.41,17.65-88,12.87-4.12-5.5-90.71,1.37-96.21,0-4.31-1.08-39.05-14-53.84-19.51-4.45-1.67-9-3.12-13.56-4.36l-78.44-21.2A105.86,105.86,0,0,1,313,399l-13.12-8.61a106,106,0,0,0-36.23-15.08c-16.19-3.43-37.71-8-45.08-9.63-5.54-1.23-15.49-6-24.78-11A105.88,105.88,0,0,0,144,342.3h0a106,106,0,0,0-48.78,11.89l-7.74,4A105.53,105.53,0,0,1,74.2,364c-19,6.73-70.84,25-74.2,25v514H1415Z"/><path class="cls-18" d="M190.74,688.75c2.53-6.89,14.15-8.25,15.23-16.92.15-1.18.12-2.64-3.81-11-7.13-15.2-10.85-18.52-10.58-25,.11-2.57.9-6.57,4.66-11.42-.86-3.49-2.88-13.7,3-21.16a20.72,20.72,0,0,1,5.5-4.65c11.33-7.49,17.21-2.73,27.5-9.31,2.44-1.56,4.7-3.48,8.47-3.81,2.44-.21,3.46.43,8,1.27,5.86,1.07,8.78,1.61,10.58.85,4.89-2.07,5.93-11.46,5.5-17.77-.87-12.86-7.93-14.69-9.56-24.63-2.87-17.46,15.27-33.91,19.6-37.83,8.72-7.91,14.48-9,29.07-16.37,27.34-13.87,38-16.11,41.57-26.58,1.7-4.92,1-9.08,5.12-14,4.33-5.15,8.51-4.58,14-9.2,7.19-6.09,5.88-12.13,9.88-17,12.35-15.16,57.3,2.73,60.65,4.09,19.07,7.76,40.22,16.37,48.73,36.46,7.25,17.13-2.7,23.72,1.36,56.22,2.69,21.62,4.47,35.88,15.33,45.66,14.72,13.25,29.39,3.19,60.31,18.4,14.56,7.16,21.84,10.74,25.56,18.4,7.58,15.62-.34,40.26-2.39,70.87a16.69,16.69,0,0,0,1.37,8.52c4.35,9.18,17.35,11.41,22.83,12.27,43.17,6.81,131-23.61,156.05.68,2.26,2.19,5.79,6.55,12.61,9.54,12.78,5.61,20.81-.74,33.39,1.71,13.51,2.62,27.85,14.51,28.63,26.23,1.23,18.73-36.14,31.39-44,34.08-25.24,8.66-55.36,8.73-60.31-1.71a19.94,19.94,0,0,1-1-12.6c1.28-4.81,3.79-5.65,4.09-8.18.85-7.4-18.41-19.58-39.53-21.81-19.33-2-31.56,5.15-47.36,10.56-29,10-48.31,6.43-81.44,6.14C467.84,738.88,279,768.7,214.8,722.3,206.35,716.18,186.89,699.23,190.74,688.75Z"/><path class="cls-19" d="M1249.6,1029.34,0,982.46v-377s306.19-3.14,316.62-48.2A32,32,0,0,1,324,543.23c1.5-1.67,3.11-3.5,4.61-5.25A31.93,31.93,0,0,1,345,527.76l11.57-2.94a32,32,0,0,1,21.54,2.08h0a31.91,31.91,0,0,0,16.61,2.93C415,528,463.81,521.11,482.22,498c18.79-23.58,62.2-42.38,78.84-49a32,32,0,0,1,13.38-2.19l49.07,2.51A31.78,31.78,0,0,1,643.8,458c6,5.67,14.67,12.6,23.13,14.51a32.78,32.78,0,0,1,9.32,3.58c9.36,5.43,27.81,17.1,33,27.41L903,726.47c2.63,3.23,16.3,10.58,18.67,14,24.23,35,53.49,55.78,90.66,76.67,34.16,19.19,63.43,53.76,94.81,57.4l416.44,89.13Z"/><polygon class="cls-19" points="1161.24 709.22 1127.93 817.46 1196.62 817.46 1161.24 709.22"/><polygon class="cls-19" points="1097.52 678.69 1048.31 838.63 1149.81 838.63 1097.52 678.69"/><polygon class="cls-19" points="818.23 573.05 769.02 732.99 870.51 732.99 818.23 573.05"/><path class="cls-20" d="M1906.67,342.3h-2.11c-8.89,10-20.37,13.58-27.34,14.82a74.1,74.1,0,0,0-15.41,4.49l-3.6,1.5h0c-5.68,7.75-11.71,11-16.32,12.23a26.06,26.06,0,0,0-14.51,10.38l-12.44,18.14a17.63,17.63,0,0,1-15.42,7.41c-17.39-.83-54.35-2.06-84.63.55-41.16,3.54-69.06,54-71,57.12s-35,89.46-47.3,92.56-26.49,29.66-32.64,31.44-32.15-3.54-32.17-3.55h0c-46.35-29.22-53-29.22-63.38-31.44-8.71-1.85-41.93,13-52.54,17.95a17.45,17.45,0,0,0-5.4,3.91c-3.71,4-13.08,13.63-34.29,33.5-20.32,19-25.3,30.26-26.37,35.6a15.57,15.57,0,0,1-4.58,8.1c-4,3.82-9.33,8.89-10.2,9.44-1.42.88-3.79,32.76-11.83,43.39s-36,32.77-37.37,32.77-21.28,0-29.8,4.43c-7.18,3.74-38.6,5.27-48.25,5.65a18.11,18.11,0,0,0-5.52,1.09l-22.85,8.32c-.35,6.21-13.34,18.22-20.11,24.07a17.93,17.93,0,0,1-7.22,3.7c-4.15,1.1-9.8,4.36-13.08,6.4-1.26.78-2.46,1.67-3.67,2.53-9,6.5-42.62,14.09-46.79,15l-.86.22-30.31,8.29c-15.05-1.68-31.72,1.47-38.93,3.1a17.8,17.8,0,0,0-6.4,2.86l-40.61,29a17.59,17.59,0,0,1-5.54,2.64l-18.82,5.26a17.34,17.34,0,0,0-8.47,5.3L911.34,902a17.15,17.15,0,0,1-4.68,3.76l-11,6-7,5.29a18,18,0,0,1-10.39,3.57c-21.83.61-39.38,93.82-39.38,93.82H1906.67a17.74,17.74,0,0,0,13.27-5.82V348.12A17.7,17.7,0,0,0,1906.67,342.3Z"/><path class="cls-20" d="M1229,753h0l-4.89-.24h0c.48-.59,1.44-1.31,1.33-1.76-.27-1.11-1.44-1.15-2.47-1.11l-1.31-.86c1-1.44,3.6,0,4.19-2.27a6.21,6.21,0,0,0,.31-.75c3.62-.3,6-2.69,8.56-4.74-2.15-1.88-5.35,1.69-5.78.07-.88-3.33-2.41-1.49-3.84-1.38l-2.29-1.24c-1.11-1.79-3.61-.14-4.74-1.9,1.17-.94,3.07-.58,3.88-2.17a4.78,4.78,0,0,1,.07-.65,13.38,13.38,0,0,0,8.26-4.8c1.63-2.11-.41-1.25-1.31-1.14a1.42,1.42,0,0,1-.63.06c-.32-.58.15-2.67-1.31-1.09l-1.87,0-1.33-1.26h0c-1-1.6-2.55-.78-3.9-.72-1.77-1.09-5.72.35-4.69-4a4.7,4.7,0,0,0,4.75-.26c1.47.36,1.72-1.36,2.74-1.63,1.75-.46,3.28-1.49,3.15-3.19-.17-2.13-2.71-1-3.88-1.93-1.36,1-2.6-.27-3.91-.2.31-1.26,1.67-2.26.07-3.85-2.76-2.75-3.5-6.67-5-10.14a3.44,3.44,0,0,0,.55-4l-1.52,1c-2.21-.6-.82,1.21-1.22,1.82-2.4,4.81-4.26,9.9-7.73,14.12a3.29,3.29,0,0,0-4.2.94h0c-.37.6-.75,1.19-1.12,1.78-.36,3.73,2.89,4.08,5.08,5.43,1.48,1.47,3.46.1,5.06.89.58,3.48-3.37,1.17-4,3.13l-1.1-.33h0c-1-1.13-2.48-1-3.67-1-1.67,0-.68.79-.11,1.3h0l1,1.9-2.26.12.35.15a2.63,2.63,0,0,1-.35-.15,4.46,4.46,0,0,0-.82,0c-2.56-1.13-3.64-.3-3.73,2.84h0A16.52,16.52,0,0,0,1201,734a3.92,3.92,0,0,0,0,.59c.76,1.74,2.77,1.34,4,2.31-.92,3.68-3.86-.39-5.29,1.49l2,2.31-1.45,0c-3.4-2.44-6.82,1.33-10.22,0-1.09-.76-2.15-1.62-3.8-1.38.73,1.33,1.4,2.25,2.6,2.61a12.37,12.37,0,0,0,8.18,3.91c2.26,1.27,4.83.28,7.18,1,.34,1.91-1.15,2.31-2.4,2.9-1.34,1.46-3.61-.83-4.81,1.19l-3,1.89c-1.1,1.16-2.52,1.26-4,1.22-.6-.09-1.28-.69-1.76.07s-.22,1.51.69,2c1.62.81,3.14,1.87,5.06,1.83,4,1.6,8,1.21,12,0,1.6.19,3.85-.61,3.47,2.47-.18,1.42.22,2.47,2.08,2.53,2.17.07,2.44-1.17,2.27-2.79-.31-2.79,1.76-2,3.21-2.23l1.68.22h0c2,1.09,4.14.94,6.28.58,1.44.27,2.88.54,4-.75,4.65-1,4.83-1.21,4-3.8Zm-17-54.24Z"/><path class="cls-20" d="M1482.63,550.78h0l-4.89-.24h0c.47-.59,1.44-1.31,1.33-1.76-.27-1.11-1.44-1.15-2.47-1.11l-1.31-.86c1-1.43,3.6,0,4.19-2.26a7.92,7.92,0,0,0,.31-.75c3.62-.31,6-2.7,8.56-4.75-2.16-1.88-5.35,1.7-5.78.07-.88-3.32-2.41-1.49-3.84-1.38l-2.29-1.24c-1.11-1.79-3.61-.14-4.74-1.9,1.17-.94,3.07-.58,3.88-2.16a4.93,4.93,0,0,1,.07-.66,13.38,13.38,0,0,0,8.26-4.8c1.63-2.11-.41-1.24-1.31-1.14a1.29,1.29,0,0,1-.63.06c-.32-.58.15-2.67-1.31-1.08l-1.87,0-1.33-1.26h0c-1-1.6-2.55-.77-3.9-.72-1.78-1.09-5.72.36-4.69-4a4.73,4.73,0,0,0,4.75-.25c1.47.35,1.72-1.37,2.74-1.64,1.75-.46,3.28-1.49,3.15-3.19-.17-2.13-2.71-1-3.88-1.93-1.36,1-2.6-.27-3.91-.2.31-1.26,1.66-2.26.07-3.84-2.76-2.76-3.5-6.68-5-10.14a3.44,3.44,0,0,0,.54-4l-1.51,1c-2.21-.6-.82,1.21-1.22,1.83-2.4,4.8-4.26,9.89-7.73,14.11a3.3,3.3,0,0,0-4.2.94h0c-.37.6-.75,1.19-1.12,1.78-.36,3.73,2.89,4.09,5.08,5.43,1.48,1.48,3.46.11,5.06.89.58,3.48-3.37,1.18-4,3.13l-1.1-.33h0c-1-1.13-2.48-1-3.68-1-1.66,0-.67.79-.1,1.3h0l1,1.91-2.26.11.35.16-.35-.16a7.37,7.37,0,0,0-.82,0c-2.56-1.13-3.64-.3-3.73,2.85h0a16.65,16.65,0,0,0,7.66,4.11,3.79,3.79,0,0,0,0,.58c.76,1.74,2.77,1.34,4,2.31-.92,3.68-3.86-.39-5.29,1.49l2,2.31-1.45,0c-3.4-2.44-6.82,1.33-10.22,0-1.09-.76-2.15-1.61-3.8-1.38.73,1.33,1.4,2.25,2.59,2.61a12.4,12.4,0,0,0,8.19,3.91c2.26,1.27,4.83.29,7.18,1,.33,1.9-1.15,2.3-2.4,2.89-1.35,1.46-3.61-.83-4.81,1.19l-3,1.89c-1.1,1.17-2.52,1.26-4,1.22-.6-.09-1.28-.69-1.76.07s-.22,1.51.69,2c1.62.81,3.13,1.87,5.06,1.83,4,1.6,8,1.21,12,0,1.6.2,3.85-.61,3.47,2.47-.18,1.42.22,2.47,2.07,2.53,2.18.07,2.45-1.17,2.28-2.79-.31-2.78,1.76-2,3.21-2.22l1.68.21h0c2,1.09,4.14.94,6.28.59,1.44.26,2.87.53,4-.75,4.65-1,4.83-1.21,4-3.81Zm-17-54.24h0Z"/><path class="cls-20" d="M1748.83,408.37h0l-4.89-.23h0c.48-.59,1.45-1.31,1.34-1.76-.28-1.11-1.45-1.15-2.48-1.11l-1.31-.86c1-1.44,3.6,0,4.19-2.27a4.93,4.93,0,0,0,.31-.75c3.63-.3,6-2.69,8.57-4.74-2.16-1.88-5.36,1.69-5.79.07-.88-3.33-2.41-1.49-3.84-1.38l-2.28-1.24c-1.12-1.79-3.62-.14-4.75-1.9,1.18-.94,3.07-.58,3.88-2.17,0-.22,0-.44.07-.65a13.38,13.38,0,0,0,8.26-4.8c1.63-2.11-.41-1.25-1.3-1.14a1.46,1.46,0,0,1-.64.06c-.32-.58.15-2.67-1.31-1.09l-1.87,0-1.33-1.26h0c-1.05-1.6-2.54-.78-3.9-.72-1.77-1.09-5.72.35-4.68-4a4.68,4.68,0,0,0,4.74-.26c1.47.36,1.72-1.36,2.74-1.63,1.76-.46,3.28-1.49,3.15-3.19-.17-2.13-2.7-1-3.88-1.93-1.36,1-2.59-.27-3.9-.2.3-1.26,1.66-2.26.07-3.85-2.77-2.75-3.51-6.67-5-10.14a3.44,3.44,0,0,0,.55-4l-1.52,1c-2.21-.6-.82,1.21-1.22,1.82-2.39,4.81-4.26,9.9-7.73,14.12a3.29,3.29,0,0,0-4.2.94h0c-.37.6-.74,1.19-1.12,1.78-.36,3.73,2.89,4.08,5.08,5.43,1.48,1.47,3.46.1,5.06.89.59,3.48-3.36,1.17-4,3.12l-1.09-.32h0c-1-1.13-2.49-1-3.68-1-1.67,0-.67.8-.11,1.31h0l1,1.9-2.26.12c.12,0,.23.1.35.15l-.35-.15a4.52,4.52,0,0,0-.82.05c-2.56-1.13-3.64-.3-3.73,2.84h0a16.52,16.52,0,0,0,7.66,4.11,5.87,5.87,0,0,0,.05.59c.77,1.74,2.77,1.34,4,2.31-.92,3.68-3.86-.39-5.28,1.49l2,2.3-1.44.05c-3.4-2.44-6.83,1.33-10.23,0-1.09-.76-2.15-1.62-3.79-1.38.73,1.33,1.39,2.25,2.59,2.61a12.42,12.42,0,0,0,8.18,3.91c2.27,1.27,4.84.28,7.18,1,.34,1.91-1.15,2.31-2.4,2.9-1.34,1.46-3.61-.83-4.81,1.19l-3,1.89c-1.1,1.16-2.52,1.26-4,1.22-.59-.09-1.27-.69-1.76.07s-.22,1.51.69,2c1.62.8,3.14,1.87,5.06,1.83,4,1.6,8,1.21,12,0,1.6.19,3.85-.61,3.47,2.47-.17,1.42.23,2.47,2.08,2.53,2.17.07,2.44-1.17,2.27-2.79-.3-2.79,1.76-2,3.21-2.23l1.69.22h0c2,1.09,4.13.94,6.28.58,1.43.27,2.87.54,4-.75,4.65-1,4.83-1.21,4-3.8Zm-16.95-54.23Z"/><path class="cls-20" d="M1789,418.86h0l-3.75-.18h0c.37-.46,1.11-1,1-1.35-.22-.85-1.11-.88-1.9-.85l-1-.66c.79-1.1,2.75,0,3.21-1.73a5.89,5.89,0,0,0,.24-.58c2.77-.23,4.62-2.06,6.55-3.63-1.65-1.44-4.1,1.3-4.43.05-.67-2.54-1.84-1.14-2.94-1.05-.58-.32-1.16-.64-1.75-.95-.85-1.37-2.76-.11-3.63-1.46.9-.72,2.35-.44,3-1.65,0-.17,0-.34.05-.51a10.24,10.24,0,0,0,6.33-3.67c1.25-1.61-.31-.95-1-.87a1.21,1.21,0,0,1-.49,0c-.24-.44.12-2-1-.83l-1.43,0-1-1h0c-.8-1.23-2-.59-3-.55-1.35-.84-4.38.27-3.58-3.07a3.61,3.61,0,0,0,3.63-.2c1.12.27,1.32-1,2.1-1.25,1.34-.35,2.51-1.14,2.41-2.44-.13-1.63-2.07-.74-3-1.48-1,.79-2-.2-3-.15.23-1,1.27-1.73,0-3-2.11-2.1-2.68-5.11-3.85-7.76a2.65,2.65,0,0,0,.42-3.07l-1.16.8c-1.7-.46-.63.93-.94,1.4-1.83,3.68-3.26,7.58-5.92,10.8a2.52,2.52,0,0,0-3.21.73h0l-.86,1.36c-.28,2.85,2.21,3.12,3.89,4.15,1.13,1.13,2.65.09,3.87.69.45,2.66-2.57.9-3,2.39l-.84-.25h0c-.77-.87-1.9-.75-2.82-.77-1.28,0-.51.61-.08,1h0l.76,1.46-1.73.08.27.13-.27-.13a4.46,4.46,0,0,0-.63,0c-2-.87-2.79-.24-2.86,2.17h0a12.65,12.65,0,0,0,5.87,3.15,3.4,3.4,0,0,0,0,.45c.59,1.33,2.13,1,3.06,1.77-.71,2.81-3-.3-4.05,1.14.47.55,1,1.16,1.5,1.76l-1.11,0c-2.6-1.87-5.22,1-7.82,0a3.85,3.85,0,0,0-2.91-1.06,3.54,3.54,0,0,0,2,2,9.48,9.48,0,0,0,6.26,3c1.74,1,3.7.22,5.5.74.26,1.46-.88,1.76-1.84,2.22-1,1.11-2.76-.64-3.68.91l-2.29,1.44a3.67,3.67,0,0,1-3,.94c-.45-.07-1-.53-1.34.05s-.17,1.16.52,1.5c1.24.62,2.4,1.44,3.88,1.4a13.32,13.32,0,0,0,9.17,0c1.22.16,3-.46,2.66,1.9-.14,1.09.17,1.89,1.59,1.93,1.66.06,1.87-.89,1.73-2.13-.23-2.13,1.35-1.56,2.46-1.7l1.29.16h0a7.25,7.25,0,0,0,4.81.45c1.1.2,2.2.41,3.08-.58,3.55-.79,3.69-.92,3-2.91Zm-13-41.53h0Z"/><path class="cls-20" d="M1252.16,756.48h0l-3.42-.16h0c.34-.42,1-.92.94-1.24-.2-.77-1-.8-1.73-.77l-.92-.6c.72-1,2.52,0,2.93-1.59.08-.17.16-.35.22-.52,2.53-.22,4.22-1.89,6-3.33-1.51-1.31-3.75,1.19-4.05.05-.61-2.32-1.68-1-2.68-1l-1.6-.87c-.79-1.25-2.53-.1-3.32-1.33.82-.66,2.15-.4,2.71-1.51,0-.16,0-.31,0-.46a9.34,9.34,0,0,0,5.78-3.36c1.14-1.47-.28-.87-.91-.8a1.05,1.05,0,0,1-.45.05c-.22-.41.11-1.87-.91-.77l-1.31,0-.93-.88h0c-.74-1.12-1.78-.54-2.73-.5-1.24-.77-4,.24-3.28-2.81a3.29,3.29,0,0,0,3.32-.18c1,.25,1.2-1,1.92-1.14,1.22-.33,2.29-1,2.2-2.24-.12-1.48-1.89-.67-2.71-1.34-1,.72-1.82-.19-2.73-.15.21-.88,1.16-1.58,0-2.68-1.93-1.93-2.45-4.68-3.52-7.1a2.41,2.41,0,0,0,.38-2.8l-1.06.72c-1.55-.41-.57.85-.85,1.28-1.68,3.36-3,6.93-5.41,9.88a2.3,2.3,0,0,0-2.94.66h0l-.78,1.24c-.25,2.61,2,2.86,3.55,3.8,1,1,2.42.07,3.54.63.41,2.43-2.35.82-2.78,2.18l-.77-.23h0a3.15,3.15,0,0,0-2.57-.7c-1.17,0-.47.56-.08.91h0c.23.45.46.89.7,1.33l-1.59.08.25.11a1.74,1.74,0,0,1-.25-.11,5.46,5.46,0,0,0-.57,0c-1.79-.79-2.55-.21-2.61,2h0a11.65,11.65,0,0,0,5.36,2.88c0,.13,0,.27,0,.41.54,1.21,1.94.94,2.79,1.62-.64,2.57-2.7-.28-3.7,1l1.38,1.61-1,0c-2.38-1.71-4.78.93-7.16,0a3.49,3.49,0,0,0-2.65-1c.51.93,1,1.57,1.81,1.82a8.67,8.67,0,0,0,5.72,2.74c1.59.89,3.39.2,5,.67.24,1.34-.81,1.62-1.68,2-.94,1-2.53-.58-3.37.83l-2.08,1.32a3.37,3.37,0,0,1-2.79.85c-.42-.06-.89-.47-1.23.06s-.16,1,.48,1.37a7.62,7.62,0,0,0,3.54,1.28,12.25,12.25,0,0,0,8.38,0c1.12.14,2.7-.43,2.43,1.73-.12,1,.16,1.73,1.45,1.77,1.52,0,1.71-.82,1.59-2-.21-1.95,1.23-1.43,2.25-1.56l1.18.15h0a6.58,6.58,0,0,0,4.39.41c1,.19,2,.37,2.81-.52,3.25-.73,3.38-.85,2.79-2.66Zm-11.86-38h0Z"/><path class="cls-20" d="M1198.83,787h0l-4.89-.23h0c.48-.6,1.45-1.32,1.34-1.76-.28-1.11-1.45-1.16-2.47-1.11l-1.31-.86c1-1.44,3.59,0,4.18-2.27a6.26,6.26,0,0,0,.32-.75c3.62-.3,6-2.69,8.56-4.75-2.16-1.88-5.36,1.7-5.79.07-.88-3.32-2.41-1.49-3.84-1.37l-2.28-1.25c-1.12-1.79-3.62-.14-4.75-1.9,1.18-.93,3.07-.57,3.89-2.16a4.91,4.91,0,0,1,.06-.66,13.34,13.34,0,0,0,8.26-4.79c1.63-2.11-.4-1.25-1.3-1.15a1.31,1.31,0,0,1-.63.07c-.32-.59.15-2.67-1.32-1.09l-1.87,0-1.33-1.26h0c-1-1.61-2.54-.78-3.9-.72-1.77-1.1-5.72.35-4.68-4a4.71,4.71,0,0,0,4.74-.25c1.47.36,1.72-1.37,2.74-1.64,1.76-.46,3.29-1.48,3.15-3.19-.17-2.12-2.7-1-3.88-1.92-1.36,1-2.59-.27-3.9-.2.3-1.27,1.66-2.26.07-3.85-2.76-2.75-3.51-6.68-5-10.14a3.45,3.45,0,0,0,.55-4l-1.52,1c-2.21-.6-.82,1.22-1.22,1.83-2.39,4.8-4.26,9.9-7.72,14.11a3.31,3.31,0,0,0-4.21.95h0c-.37.59-.74,1.19-1.12,1.78-.36,3.73,2.89,4.08,5.08,5.43,1.48,1.47,3.46.1,5.06.89.59,3.47-3.36,1.17-4,3.12l-1.1-.32h0c-1-1.13-2.49-1-3.68-1-1.67,0-.67.8-.11,1.31h0l1,1.9-2.26.11.35.16a3.52,3.52,0,0,1-.35-.16,5.66,5.66,0,0,0-.82.06c-2.56-1.13-3.64-.31-3.73,2.84h0a16.66,16.66,0,0,0,7.66,4.11,5.87,5.87,0,0,0,.05.59c.77,1.73,2.77,1.34,4,2.31-.93,3.67-3.87-.39-5.29,1.49l2,2.3-1.44.05c-3.4-2.44-6.83,1.33-10.23,0-1.09-.76-2.14-1.62-3.79-1.38.73,1.32,1.39,2.24,2.59,2.61a12.46,12.46,0,0,0,8.18,3.91c2.27,1.26,4.84.28,7.18,1,.34,1.91-1.15,2.3-2.4,2.9-1.34,1.46-3.61-.84-4.81,1.19l-3,1.88c-1.1,1.17-2.52,1.26-4,1.22-.59-.09-1.27-.68-1.75.08s-.23,1.5.68,2c1.62.81,3.14,1.88,5.07,1.84,4,1.59,8,1.21,12,0,1.59.2,3.84-.6,3.46,2.47-.17,1.43.23,2.47,2.08,2.53,2.17.08,2.45-1.16,2.27-2.78-.3-2.79,1.76-2,3.21-2.23l1.69.21h0c2,1.09,4.13.94,6.28.59,1.43.27,2.87.53,4-.75,4.64-1,4.82-1.21,4-3.8Zm-16.95-54.23Z"/><path class="cls-20" d="M1021.11,853.66h0l-5.91-.28h0c.58-.72,1.75-1.59,1.62-2.13-.34-1.34-1.75-1.4-3-1.34l-1.59-1c1.25-1.74,4.35,0,5.07-2.74a7.89,7.89,0,0,0,.37-.91c4.39-.37,7.3-3.26,10.36-5.74-2.61-2.28-6.48,2-7,.08-1.06-4-2.91-1.8-4.64-1.66l-2.76-1.51c-1.36-2.16-4.37-.17-5.74-2.29,1.42-1.14,3.71-.7,4.69-2.62a5.31,5.31,0,0,1,.09-.79,16.21,16.21,0,0,0,10-5.8c2-2.55-.49-1.51-1.57-1.38a1.63,1.63,0,0,1-.77.07c-.39-.71.18-3.23-1.59-1.31l-2.26,0-1.61-1.52h0c-1.26-2-3.08-.94-4.71-.88-2.15-1.32-6.92.43-5.67-4.85a5.7,5.7,0,0,0,5.74-.31c1.77.43,2.08-1.65,3.31-2,2.12-.55,4-1.79,3.81-3.85-.2-2.58-3.27-1.17-4.69-2.33-1.64,1.25-3.14-.33-4.72-.25.37-1.52,2-2.73.08-4.65-3.34-3.33-4.24-8.07-6.08-12.26a4.18,4.18,0,0,0,.66-4.84c-.62.41-1.23.83-1.84,1.25-2.67-.72-1,1.47-1.48,2.21-2.89,5.81-5.14,12-9.34,17.07a4,4,0,0,0-5.08,1.14h0l-1.35,2.15c-.44,4.51,3.49,4.94,6.14,6.57,1.79,1.78,4.18.12,6.12,1.08.71,4.2-4.07,1.41-4.81,3.77l-1.33-.39h0c-1.21-1.37-3-1.19-4.45-1.21-2,0-.81,1-.13,1.58h0l1.2,2.29-2.73.14.42.19a3.89,3.89,0,0,1-.42-.19,6.41,6.41,0,0,0-1,.07c-3.1-1.37-4.41-.37-4.51,3.44h0c2.72,2.32,5.65,4.29,9.26,5a4.14,4.14,0,0,0,.06.7c.92,2.11,3.35,1.63,4.82,2.8-1.12,4.44-4.68-.47-6.4,1.8l2.38,2.79-1.75,0c-4.11-2.95-8.25,1.61-12.37,0-1.31-.92-2.59-2-4.58-1.66.88,1.6,1.68,2.71,3.13,3.15,2.77,2.67,5.93,4.55,9.89,4.73,2.75,1.53,5.85.34,8.69,1.16.4,2.31-1.39,2.79-2.91,3.51-1.62,1.76-4.36-1-5.81,1.43l-3.61,2.29c-1.32,1.41-3,1.52-4.82,1.47-.72-.11-1.54-.83-2.12.09s-.27,1.82.82,2.37c2,1,3.8,2.27,6.13,2.21,4.83,1.94,9.66,1.47,14.49,0,1.92.24,4.65-.74,4.19,3-.21,1.72.27,3,2.51,3,2.63.09,3-1.41,2.75-3.36-.37-3.37,2.13-2.47,3.88-2.7l2,.26h0c2.43,1.32,5,1.14,7.59.71,1.74.32,3.47.64,4.86-.91,5.62-1.25,5.84-1.46,4.82-4.59Zm-20.49-65.58Z"/><path class="cls-20" d="M1290.84,739.36c-3-2.09,2.25-2.45.59-4.07-2.44-2.38-3-5.56-4.25-8.57-1.93-4.74-1-10.39-4.79-14.44a1.83,1.83,0,0,1-.31-1.42c.94-5-2.49-8.29-4.65-12.27-.44,4.33-6.7,6.79-3.53,12.14-4.43,5.31-2.64,13.27-7.77,18.28-1.26,1.11-.07,1.42.62,1.91h0c.83,3.26-7.74,4.34-2,8.73a2,2,0,0,1-.33.37c-5.06,3-3.48,9.57-7.32,13.61,2.18-.29,3.49,2.35,5.39,1.42,4.4-2.14,9-.28,13.39-.95l.13,5h0c.65,1.66,2,.73,3.06.81,2.55-1.39-.39-4.7,2.13-6.11,5.6,0,11.26,1.74,17.34-.16C1294.83,749,1295.65,742.66,1290.84,739.36Z"/><path class="cls-20" d="M1078.05,805.66c-2.67-1.84,2-2.15.52-3.58-2.14-2.09-2.66-4.89-3.74-7.55-1.7-4.17-.92-9.14-4.21-12.71a1.63,1.63,0,0,1-.28-1.25c.83-4.37-2.19-7.29-4.09-10.8-.39,3.81-5.9,6-3.11,10.69-3.9,4.67-2.32,11.68-6.84,16.09-1.11,1-.06,1.26.54,1.68h0c.74,2.88-6.81,3.82-1.79,7.69a1.28,1.28,0,0,1-.29.32c-4.46,2.67-3.06,8.43-6.45,12,1.93-.26,3.08,2.07,4.75,1.25,3.88-1.89,7.89-.25,11.79-.84L1065,823h0c.57,1.45,1.74.64,2.68.71,2.26-1.23-.34-4.14,1.88-5.38,4.93,0,9.91,1.53,15.27-.14C1081.56,814.19,1082.29,808.57,1078.05,805.66Z"/><g class="cls-21"><path class="cls-9" d="M1580.15,680.9c-194.65,26.69-211,166.15-449,221.17C975.74,938,928.3,891.14,672,928.88A1901.75,1901.75,0,0,0,424,982.5L1919.94,1048V760.23C1824.77,705.82,1707.21,663.48,1580.15,680.9Z"/></g><path class="cls-20" d="M168.5,331.49c-.3-.26-1-.06-1.53-.07h0l.27-.8a1.68,1.68,0,0,0-1.67-2.09c.12-.7.19-1.67-.65-1.67-2.54,0-3.82-1.75-5.25-3.36.92-.5,2-.76,2.57-1.8h0c-.05-.69-.14-1.36-1-1.53l-3.1-1.12c-.58-1.32-3.34-2.75-2.14-3.43,3.26-1.85.64-1.94-.34-2.91s-2.49-1.69-2.94-3.27c-.85-3-1.86-6-2.83-8.94-1.42-4.23-4.67-7-6.06-11.15-.71,2.68-3.22,3.77-4.2,6.39-.72,1.91.48,5-2.33,6.33-1.39.67-2,2.08-2.53,4-.61,2.32-.09,5.78-3.26,7.13l-2.93,1.14c-1,0-1,.74-1.05,1.4.91,1.41,2.41.83,3.66,1.1l-2.09,2.38a4.31,4.31,0,0,0-2.74,1.43l3.67,1.22c-1.69,2.48-4.41,3.53-6.84,5l-1.93.43a1.79,1.79,0,0,0,1.79.59c.08.52.15,1,.23,1.56l-4.12,1.83c-1.09.9-.41,1.31.48,1.44,1.18.16,2.38.15,3.57.21l.13-.1c0,.28,0,.56-.07.85-.58.37-2.5.64-.65,1.45a5.72,5.72,0,0,0,5.08-.45h.35l.31-.18c5.26,1.28-1.14,3.21.84,5a22.62,22.62,0,0,0,8.19-1.35c5.29-1.95,3.78,1.26,3.77,3.49,0,2,.28,3,2.7,3.06,2.66,0,2.54-1.45,2.49-3.22,0-1.48,0-3,0-4.42,2-.19,3.19,2.25,5.06.82l.78.05c.13.26.25.61.53.09h0l.31-.2h0c2.2.39,4.07,2.33,6.42,1.64.47-1.93-4.72-2.84-.54-5h0a.73.73,0,0,0,.69.19,5.5,5.5,0,0,0,4.75.58c1.91-.62.26-1.06-.45-1.39l-1-1,1-.4a.81.81,0,0,1,.22-.07l-.22.07a7.15,7.15,0,0,0,4.12.19C168.47,332.48,169.17,332.07,168.5,331.49Z"/><path class="cls-22" d="M698.54,744.61l-82.68-37.47A34.75,34.75,0,0,1,602,695.77l-38.9-54.06a34.58,34.58,0,0,0-19-13.19l-3.29-.89a19.94,19.94,0,0,1-5.48-2.43l-28-18L461.53,567.1a8.87,8.87,0,0,0-7.35-2.09l-2.47.41a11,11,0,0,1-4.74-.26l-17.31-4.82a10,10,0,0,0-6.51.39l-.67.28a35,35,0,0,1-14.71,2.64l-6.1-.23a39,39,0,0,1-12.75-2.64l-1.1-.43a54.09,54.09,0,0,1-24.33-18.9l-2.67-3.74a58.65,58.65,0,0,0-19.93-17.51l-10.3-5.54a32.94,32.94,0,0,0-6.12-2.51l-8-2.33a30,30,0,0,1-12.25-7.08,59.73,59.73,0,0,0-24.77-14.21l-31.11-8.95a41,41,0,0,0-18.68-.94l-4.51.82a30.28,30.28,0,0,1-13.39-.58h0a72.74,72.74,0,0,0-28.51-1.95l-2.89.37a92.9,92.9,0,0,0-24,6.47l-13.3,5.59s-6.17,1.34-12.52,2.75A31.87,31.87,0,0,0,110,507.05a64.84,64.84,0,0,1-25.35,24.29L62,543.42A83,83,0,0,0,38.77,561.8c-7.37,8.36-18,19-26.2,21.31A60,60,0,0,0,0,588.45V829.71H728.13C722.65,826.17,704.49,747.3,698.54,744.61Z"/><path class="cls-11" d="M1806.63,538.16l-1.45-3.87h0c2.59-.08,3.51-.87,1.27-3-.43-1.18-.87-2.35-1.31-3.52,1.75-1.35,2.25-2.53,0-4.08-3.36-2.32-8.94-4.53-1.44-8.72,1.25-.7.17-1-.18-1.27-4.33-2.9-7.84-6.07-4.53-11.88-6.16-5.91-5.46-15.54-11.6-21.47-.07-1.57,1.06-4.11-1.65-4-3.34.09-1.82,3.26-2.38,5.11-5.79,5.66-4.88,15-11.17,20.39-.2.17-.17.7-.12,1.05.84,6.64.93,6.75-3.79,10.28-1.76,1.32-1.48,1.72.29,2.26-.78,1.37-.93,2.7.23,4,.4,1.32-3,.83-1.31,2.77-2.34,2.39-5.41,4.89.88,6.08.19,0,.15,1.23.22,1.89-6.65.29-4.28,4.73-3.82,8.3h0c-2.47,1-5,1.8-6.23,4.53,8.07,3.54,8.07,3.54-.09,10l4.11,2.3c-.56.36-1.09.74-1.6,1.13a334.87,334.87,0,0,1,50.1-15.19Z"/><path class="cls-11" d="M1740.3,565.15c-.54-1.44-1.08-2.88-1.61-4.32h0c2.88-.08,3.91-1,1.41-3.33-.48-1.31-1-2.61-1.46-3.92,1.95-1.5,2.51-2.82,0-4.54-3.74-2.6-10-5.06-1.6-9.72,1.39-.78.19-1.16-.2-1.42-4.83-3.23-8.74-6.77-5-13.23-6.87-6.6-6.08-17.33-12.93-23.93-.08-1.76,1.18-4.58-1.83-4.51-3.73.1-2,3.64-2.66,5.7-6.45,6.31-5.44,16.71-12.45,22.72-.22.19-.19.78-.14,1.17,1,7.4,1,7.52-4.21,11.46-2,1.47-1.66,1.91.32,2.52-.87,1.52-1,3,.26,4.4.44,1.47-3.35.93-1.47,3.08-2.6,2.67-6,5.45,1,6.78.2,0,.16,1.38.24,2.11-7.41.32-4.78,5.27-4.26,9.25h0c-2.75,1.06-5.59,2-7,5,9,3.95,9,3.95-.09,11.19l4.58,2.56a27.81,27.81,0,0,0-8.37,8.43c-2.12,3.2-.75,5.4,2,5l.44-.06a392.59,392.59,0,0,1,55.16-32.3Z"/><polygon class="cls-20" points="710.81 791.41 661.6 951.35 763.1 951.35 710.81 791.41"/><polygon class="cls-20" points="281.13 701.92 246.21 815.39 318.22 815.39 281.13 701.92"/><polygon class="cls-20" points="675.56 830.59 640.65 944.06 712.65 944.06 675.56 830.59"/><path class="cls-23" d="M173.88,791.76c-4.24-2.93,3.15-3.42.83-5.69-3.41-3.32-4.23-7.77-5.94-12-2.7-6.62-1.46-14.51-6.69-20.18a2.61,2.61,0,0,1-.44-2c1.31-6.94-3.47-11.58-6.5-17.15-.61,6.05-9.36,9.49-4.93,17-6.2,7.42-3.69,18.55-10.86,25.55-1.76,1.55-.09,2,.86,2.67h0c1.17,4.56-10.81,6.07-2.84,12.21a2.54,2.54,0,0,1-.47.51c-7.07,4.24-4.86,13.38-10.23,19,3.06-.41,4.89,3.28,7.54,2,6.15-3,12.53-.4,18.71-1.33l.19,7h0c.91,2.32,2.77,1,4.27,1.13,3.57-2-.55-6.57,3-8.54,7.84-.06,15.74,2.44,24.25-.23C179.46,805.29,180.6,796.38,173.88,791.76Z"/><path class="cls-20" d="M522.76,844.6c-4.25-2.92,3.14-3.41.82-5.68-3.41-3.32-4.22-7.77-5.94-12-2.69-6.63-1.46-14.51-6.69-20.18a2.65,2.65,0,0,1-.44-2c1.32-6.94-3.47-11.58-6.49-17.16-.62,6.06-9.36,9.5-4.93,17-6.2,7.42-3.69,18.54-10.86,25.55-1.76,1.55-.1,2,.86,2.67h0c1.17,4.56-10.82,6.07-2.84,12.21a2.54,2.54,0,0,1-.48.5c-7.06,4.24-4.85,13.38-10.23,19,3.06-.42,4.89,3.27,7.55,2,6.15-3,12.52-.4,18.71-1.33l.18,7h0c.91,2.31,2.77,1,4.27,1.13,3.57-1.95-.54-6.57,3-8.54,7.83-.06,15.73,2.43,24.24-.23C528.33,858.14,529.48,849.23,522.76,844.6Z"/><path class="cls-15" d="M920.35,436.86v-5.75a1.63,1.63,0,0,0-1.63-1.63h0a1.63,1.63,0,0,0-1.62,1.63v5.75Z"/><path class="cls-15" d="M863,446.79V441a1.63,1.63,0,0,0-1.62-1.62h0a1.63,1.63,0,0,0-1.63,1.62v5.75Z"/><line class="cls-24" x1="917.72" y1="437.86" x2="917.72" y2="437.86"/><circle class="cls-25" cx="599.58" cy="233.97" r="6.43"/><circle class="cls-26" cx="666.98" cy="122.49" r="6.43"/><circle class="cls-27" cx="933.41" cy="676.93" r="6.43"/><circle class="cls-28" cx="1433.45" cy="702.27" r="6.43"/><circle class="cls-29" cx="351.43" cy="138.99" r="6.43"/><circle class="cls-30" cx="498.08" cy="240.65" r="6.43"/><circle class="cls-31" cx="92.49" cy="92.2" r="6.43"/><circle class="cls-32" cx="939.84" cy="128.92" r="6.43"/><circle class="cls-33" cx="783.36" cy="233.97" r="6.43"/><circle class="cls-34" cx="1811.08" cy="69.6" r="6.43"/><circle class="cls-35" cx="1427.02" cy="14.49" r="6.43"/><circle class="cls-36" cx="1572.96" cy="125.37" r="6.43"/><circle class="cls-37" cx="1445.53" cy="22.33" r="6.43"/><circle class="cls-38" cx="448.27" cy="367.88" r="6.43"/><line class="cls-39" x1="282.22" y1="279.94" x2="282.22" y2="298.77"/><line class="cls-40" x1="291.63" y1="289.35" x2="272.8" y2="289.35"/><line class="cls-41" x1="482.23" y1="99.34" x2="482.23" y2="130.25"/><line class="cls-42" x1="497.69" y1="114.79" x2="466.78" y2="114.79"/><line class="cls-43" x1="745.35" y1="360.15" x2="745.35" y2="375.61"/><line class="cls-44" x1="753.08" y1="367.88" x2="737.62" y2="367.88"/><line class="cls-45" x1="819.77" y1="32.63" x2="819.77" y2="58.95"/><line class="cls-46" x1="832.92" y1="45.79" x2="806.61" y2="45.79"/><line class="cls-47" x1="1066.56" y1="27.35" x2="1066.56" y2="69.6"/><line class="cls-48" x1="1087.68" y1="48.48" x2="1045.43" y2="48.48"/><line class="cls-49" x1="1784.78" y1="278.79" x2="1784.78" y2="299.91"/><line class="cls-50" x1="1795.34" y1="289.35" x2="1774.22" y2="289.35"/><line class="cls-51" x1="1472.84" y1="140.3" x2="1472.84" y2="172.19"/><line class="cls-52" x1="1488.79" y1="156.25" x2="1456.89" y2="156.25"/><line class="cls-53" x1="1715.01" y1="115.19" x2="1715.01" y2="165.41"/><line class="cls-54" x1="1740.12" y1="140.3" x2="1689.9" y2="140.3"/><line class="cls-55" x1="223.62" y1="69.6" x2="223.62" y2="114.79"/><line class="cls-56" x1="246.21" y1="92.2" x2="201.02" y2="92.2"/><path class="cls-57" d="M0,1080H1919.94V843.57c-90,44.23-165.76,64.06-220,73.9-32.81,5.95-57,8.11-225.71,31.78-41.71,5.85-57.71,8.17-66.31,9.37-157.45,21.86-372.08,78.25-569-5.67C750.55,915.32,691,862.56,567,852.47c-75.53-6.15-154.63,5.19-246-42a354.58,354.58,0,0,1-78-54.94c-13.2-17.51-24.65-24.43-33-27.41-2.06-.74-4.62-2.53-9.3-3.58C185.71,721.16,170,702,170,702l-68.5-3.5s-62,22-85.5,51.5a55,55,0,0,1-16,13V1080Z"/><path class="cls-58" d="M130.6,907.2q0,7.5-4.35,11.67T113.92,923q-7.44,0-11.25-3.36a11.61,11.61,0,0,1-3.81-9.18,20.85,20.85,0,0,1,.36-3.72l10.2-1.8a29.71,29.71,0,0,0-.3,3.72q0,3.3,1.29,4.77a5,5,0,0,0,4,1.47,5,5,0,0,0,4.53-2.1q1.35-2.1,1.35-6.72V882.84H130.6Z"/><path class="cls-58" d="M163.87,896q4.17,4.11,4.17,11.49t-4.17,11.49Q159.7,923,152.2,923t-11.67-4.11q-4.17-4.11-4.17-11.49T140.53,896q4.17-4.11,11.67-4.11T163.87,896Zm-15.93,5.13q-1.38,2-1.38,6.36t1.38,6.36a5.57,5.57,0,0,0,8.52,0q1.38-2,1.38-6.36t-1.38-6.36a5.57,5.57,0,0,0-8.52,0Z"/><path class="cls-58" d="M202.84,910.38H182.38a6.6,6.6,0,0,0,2.07,4.14,6.41,6.41,0,0,0,4.23,1.32,7,7,0,0,0,3.63-.84,4.12,4.12,0,0,0,1.89-2.46l8.28,2.64a10.09,10.09,0,0,1-4.89,5.85,18.17,18.17,0,0,1-8.91,2q-7.86,0-12-4.08t-4.17-11.52q0-7.44,4.08-11.52t11.58-4.08q7.26,0,11.13,4T203.14,907A15.56,15.56,0,0,1,202.84,910.38Zm-20.52-5.52H193.6q-.72-5.88-5.52-5.88T182.32,904.86Z"/><path class="cls-58" d="M248.08,913.5H234.4l-2.76,8.94H221.26l13.92-39.6h12.36l13.86,39.6H250.78Zm-2.16-7L243,897l-1.74-6.24h-.12l-1.62,6.18-3,9.54Z"/><path class="cls-58" d="M292.54,894.6q2.82,2.76,2.82,7.86v20h-10.2V905.28q0-3.06-1.11-4.35a4,4,0,0,0-3.15-1.29,4.94,4.94,0,0,0-3.9,1.71q-1.5,1.71-1.5,5.25v15.84H265.3v-30h9.12l.3,5.76a10.36,10.36,0,0,1,4.08-4.77,11.75,11.75,0,0,1,6.18-1.59A10.36,10.36,0,0,1,292.54,894.6Z"/><path class="cls-58" d="M329.74,894.6q2.81,2.76,2.81,7.86v20h-10.2V905.28c0-2-.37-3.49-1.1-4.35a4,4,0,0,0-3.16-1.29,4.92,4.92,0,0,0-3.89,1.71c-1,1.14-1.5,2.89-1.5,5.25v15.84H302.5v-30h9.12l.3,5.76a10.3,10.3,0,0,1,4.08-4.77,11.69,11.69,0,0,1,6.17-1.59A10.38,10.38,0,0,1,329.74,894.6Z"/><path class="cls-58" d="M340.27,887.79a4.53,4.53,0,0,1-1.41-3.69,4.6,4.6,0,0,1,1.41-3.75,7,7,0,0,1,4.52-1.17,7.1,7.1,0,0,1,4.54,1.17,4.64,4.64,0,0,1,1.41,3.75,4.56,4.56,0,0,1-1.41,3.69,7.1,7.1,0,0,1-4.54,1.17A7,7,0,0,1,340.27,887.79Zm9.63,34.65H339.7v-30h10.2Z"/><path class="cls-58" d="M354.93,917.76l5.28-5.76q2.58,4.26,8.88,4.26a7.83,7.83,0,0,0,3.3-.57,1.73,1.73,0,0,0,1.2-1.53q0-.84-1.23-1.47a17.94,17.94,0,0,0-4.23-1.23q-6.72-1.32-9.57-3.6a7.37,7.37,0,0,1-2.85-6.06,8.24,8.24,0,0,1,1.62-4.86,11.28,11.28,0,0,1,4.89-3.69,20,20,0,0,1,7.95-1.41,21.48,21.48,0,0,1,8.43,1.41,12.56,12.56,0,0,1,5.31,4.23l-5.28,5.16a8.84,8.84,0,0,0-3.42-3.06,10.77,10.77,0,0,0-4.74-1,7,7,0,0,0-3.36.66,1.9,1.9,0,0,0-1.2,1.62q0,.9,1.23,1.53a18,18,0,0,0,4.29,1.23q6.6,1.14,9.51,3.39a7.35,7.35,0,0,1,2.91,6.15,8.47,8.47,0,0,1-3.66,7.11Q376.53,923,369.57,923,359.25,923,354.93,917.76Z"/><path class="cls-59" d="M124.56,952.49q4.13,4.13,4.13,11.71t-4.13,11.71Q120.44,980,113,980H101.76V948.36H113Q120.44,948.36,124.56,952.49Zm-3.93,20.18q2.69-3,2.68-8.47t-2.68-8.47q-2.7-3-7.68-3h-6v22.94h6Q117.93,975.67,120.63,972.67Z"/><path class="cls-59" d="M156.87,970H139.3a7.63,7.63,0,0,0,2.25,4.82,6.73,6.73,0,0,0,4.71,1.66,8.2,8.2,0,0,0,3.91-.84,4.44,4.44,0,0,0,2.14-2.42l4.27,1.77c-1.79,3.71-5.24,5.57-10.32,5.57q-5.67,0-8.86-3.31T134.21,968q0-5.91,3.07-9.19t8.64-3.29q5.28,0,8.21,3.22a12.2,12.2,0,0,1,2.93,8.54A18.42,18.42,0,0,1,156.87,970Zm-15.44-8.69A7.83,7.83,0,0,0,139.3,966h13a8,8,0,0,0-2-4.7,5.79,5.79,0,0,0-4.3-1.68A6.21,6.21,0,0,0,141.43,961.27Z"/><path class="cls-59" d="M183.94,956l-9.56,24h-5.61l-9.6-24h5.66l6.77,19.82,7-19.82Z"/><path class="cls-59" d="M209.42,970H191.86a7.63,7.63,0,0,0,2.25,4.82,6.73,6.73,0,0,0,4.71,1.66,8.2,8.2,0,0,0,3.91-.84,4.44,4.44,0,0,0,2.14-2.42l4.27,1.77q-2.7,5.56-10.32,5.57-5.67,0-8.86-3.31T186.77,968q0-5.91,3.07-9.19t8.64-3.29q5.28,0,8.21,3.22a12.2,12.2,0,0,1,2.93,8.54A17,17,0,0,1,209.42,970ZM194,961.27a7.83,7.83,0,0,0-2.13,4.75h13a8,8,0,0,0-2-4.7,5.79,5.79,0,0,0-4.3-1.68A6.21,6.21,0,0,0,194,961.27Z"/><path class="cls-59" d="M221,973a4.24,4.24,0,0,0,.53,2.47,2.33,2.33,0,0,0,2,.7,8.84,8.84,0,0,0,1.56-.12,9.3,9.3,0,0,0,1.6-.5l-.57,4.12a8.79,8.79,0,0,1-4,.82,6.13,6.13,0,0,1-4.72-1.63q-1.51-1.64-1.52-5.14V945.24H221Z"/><path class="cls-59" d="M250.37,958.87q3.16,3.32,3.17,9.17t-3.17,9.17q-3.17,3.31-8.79,3.31t-8.78-3.31q-3.17-3.32-3.17-9.17t3.17-9.17q3.16-3.32,8.78-3.31T250.37,958.87Zm-13.8,2.91a12.07,12.07,0,0,0,0,12.52,6.84,6.84,0,0,0,10.05,0,11.83,11.83,0,0,0,0-12.48,6.84,6.84,0,0,0-10.05,0Z"/><path class="cls-59" d="M280.8,958.85q2.83,3.28,2.83,9.14t-2.83,9.19a9.65,9.65,0,0,1-7.78,3.34,9.25,9.25,0,0,1-4.63-1.15,8,8,0,0,1-3.14-3.17v13.92h-5.14V956h4.51l.24,4.46a8.43,8.43,0,0,1,3.2-3.6,9.16,9.16,0,0,1,5-1.34A9.74,9.74,0,0,1,280.8,958.85Zm-4.06,15.31a11.56,11.56,0,0,0,0-12.26,5.84,5.84,0,0,0-4.87-2.21,5.94,5.94,0,0,0-4.68,2,8.67,8.67,0,0,0-1.94,5.47V969a8.64,8.64,0,0,0,1.94,5.43,6,6,0,0,0,4.68,2A5.87,5.87,0,0,0,276.74,974.16Z"/><path class="cls-59" d="M311.57,970H294a7.68,7.68,0,0,0,2.25,4.82,6.73,6.73,0,0,0,4.71,1.66,8.17,8.17,0,0,0,3.91-.84,4.44,4.44,0,0,0,2.14-2.42l4.27,1.77q-2.68,5.56-10.32,5.57-5.67,0-8.86-3.31T288.91,968q0-5.91,3.07-9.19t8.64-3.29q5.28,0,8.21,3.22a12.2,12.2,0,0,1,2.93,8.54A17.08,17.08,0,0,1,311.57,970Zm-15.43-8.69A7.83,7.83,0,0,0,294,966h13a8,8,0,0,0-2-4.7,5.77,5.77,0,0,0-4.3-1.68A6.19,6.19,0,0,0,296.14,961.27Z"/><path class="cls-59" d="M333.22,956l-.82,4.7a6.23,6.23,0,0,0-3-.62,5.53,5.53,0,0,0-2.91.82,6.21,6.21,0,0,0-2.25,2.44,8,8,0,0,0-.89,3.94V980h-5.14V956h4.37l.43,4.32c1.35-3.2,3.87-4.8,7.59-4.8A6,6,0,0,1,333.22,956Z"/><path class="cls-59" d="M339.48,975a5.86,5.86,0,0,1,1.08,3.67,9.2,9.2,0,0,1-1.44,5,9.65,9.65,0,0,1-4.22,3.58l-2.5-2.11a8.68,8.68,0,0,0,3.31-2,6.42,6.42,0,0,0,1.78-3l-.24-.09a1.93,1.93,0,0,1-1.35.38,3,3,0,0,1-2.13-.89,3.21,3.21,0,0,1-.94-2.47,3.34,3.34,0,0,1,1.06-2.54,3.62,3.62,0,0,1,2.59-1A3.55,3.55,0,0,1,339.48,975Z"/><path class="cls-59" d="M386.16,952.49q4.13,4.13,4.13,11.71t-4.13,11.71Q382,980,374.54,980H363.36V948.36h11.18Q382,948.36,386.16,952.49Zm-3.94,20.18q2.68-3,2.69-8.47t-2.69-8.47q-2.69-3-7.68-3h-6.05v22.94h6.05Q379.54,975.67,382.22,972.67Z"/><path class="cls-59" d="M418.46,970H400.89a7.63,7.63,0,0,0,2.26,4.82,6.7,6.7,0,0,0,4.7,1.66,8.21,8.21,0,0,0,3.92-.84,4.38,4.38,0,0,0,2.13-2.42l4.27,1.77q-2.69,5.56-10.32,5.57-5.66,0-8.85-3.31T395.81,968q0-5.91,3.07-9.19t8.64-3.29c3.52,0,6.25,1.07,8.21,3.22a12.19,12.19,0,0,1,2.92,8.54A17.08,17.08,0,0,1,418.46,970ZM403,961.27a7.83,7.83,0,0,0-2.14,4.75h13a7.83,7.83,0,0,0-2-4.7,5.75,5.75,0,0,0-4.29-1.68A6.21,6.21,0,0,0,403,961.27Z"/><path class="cls-59" d="M427.32,979.27a8.85,8.85,0,0,1-4.25-3.79l3.46-3a5.91,5.91,0,0,0,2.83,3,10.19,10.19,0,0,0,4.61,1,7.61,7.61,0,0,0,3.79-.79,2.38,2.38,0,0,0,1.34-2.09,2.07,2.07,0,0,0-1.25-1.85,16.68,16.68,0,0,0-4.32-1.32q-5.32-1-7.48-2.69a5.66,5.66,0,0,1-2.16-4.75,6.24,6.24,0,0,1,1.2-3.67,8.19,8.19,0,0,1,3.48-2.74,12.91,12.91,0,0,1,5.4-1,13.25,13.25,0,0,1,6.38,1.32,8.75,8.75,0,0,1,3.7,4.1l-3.65,2.69a6.33,6.33,0,0,0-2.43-3.09,7.27,7.27,0,0,0-4-1,6.61,6.61,0,0,0-3.57.89,2.47,2.47,0,0,0-1.42,2,2.34,2.34,0,0,0,1.27,2.06,15.21,15.21,0,0,0,4.64,1.4c3.39.6,5.79,1.47,7.2,2.59a5.69,5.69,0,0,1,2.11,4.7,6.17,6.17,0,0,1-2.79,5.23q-2.77,2-7.68,2A15.76,15.76,0,0,1,427.32,979.27Z"/><path class="cls-59" d="M450.53,951.17a3.07,3.07,0,0,1-.92-2.38,3,3,0,0,1,.92-2.35,3.67,3.67,0,0,1,2.54-.82,3.6,3.6,0,0,1,2.52.82,3,3,0,0,1,.89,2.35,3.12,3.12,0,0,1-.89,2.38,3.52,3.52,0,0,1-2.52.84A3.59,3.59,0,0,1,450.53,951.17ZM455.61,980h-5.13V956h5.13Z"/><path class="cls-59" d="M483.26,977.93a5.5,5.5,0,0,1,2,4.51,6.08,6.08,0,0,1-1.61,4.22,10.28,10.28,0,0,1-4.42,2.74,19.4,19.4,0,0,1-6.31,1c-3.81,0-6.66-.56-8.57-1.68a5,5,0,0,1-2.85-4.46,4.1,4.1,0,0,1,1.12-2.86,6.32,6.32,0,0,1,3.15-1.75,6.78,6.78,0,0,1-2.45-1.85,4.17,4.17,0,0,1-.91-2.71q0-3.51,3.74-4.8a7.33,7.33,0,0,1-2.76-2.74,7.8,7.8,0,0,1-.93-3.84,7.26,7.26,0,0,1,1.29-4.25,8.35,8.35,0,0,1,3.67-2.85,13.9,13.9,0,0,1,5.45-1,14.73,14.73,0,0,1,4.85.77A6.48,6.48,0,0,1,484.8,951l.86,4a8.8,8.8,0,0,0-3.72.58,3.56,3.56,0,0,0-1.94,1.87,7.81,7.81,0,0,1,2.44,2.69,7.26,7.26,0,0,1,.87,3.55,7.08,7.08,0,0,1-2.86,5.91,12,12,0,0,1-7.56,2.2,16.74,16.74,0,0,1-4-.43,3.18,3.18,0,0,0-1.75.94,2.52,2.52,0,0,0-.56,1.7,2,2,0,0,0,.8,1.71,3.51,3.51,0,0,0,2.18.6h8A8.75,8.75,0,0,1,483.26,977.93Zm-4.37,7.58c1.31-.67,2-1.5,2-2.49a2.05,2.05,0,0,0-1-1.83,6.23,6.23,0,0,0-3.22-.62H470.2a6.22,6.22,0,0,0-3.24.67,2.1,2.1,0,0,0-1.08,1.87,2.77,2.77,0,0,0,1.9,2.52,13.84,13.84,0,0,0,5.64.89A12.18,12.18,0,0,0,478.89,985.51Zm-9.69-25.08a4.06,4.06,0,0,0-1.49,3.24A4.1,4.1,0,0,0,469.2,967a6,6,0,0,0,7.41,0,4.14,4.14,0,0,0,1.47-3.29,4.07,4.07,0,0,0-1.47-3.26,5.52,5.52,0,0,0-3.72-1.25A5.46,5.46,0,0,0,469.2,960.43Z"/><path class="cls-59" d="M509.64,957.86a8.54,8.54,0,0,1,2.52,6.63V980H507V966.12c0-4.22-1.71-6.34-5.14-6.34a6.39,6.39,0,0,0-4.6,1.85q-1.92,1.85-1.92,5.69V980h-5.14V956h4.56l.24,4a7.84,7.84,0,0,1,3.31-3.36,10.29,10.29,0,0,1,4.8-1.1A9.3,9.3,0,0,1,509.64,957.86Z"/><path class="cls-59" d="M541.2,970H523.63a7.68,7.68,0,0,0,2.25,4.82,6.73,6.73,0,0,0,4.71,1.66,8.2,8.2,0,0,0,3.91-.84,4.44,4.44,0,0,0,2.14-2.42l4.27,1.77c-1.79,3.71-5.24,5.57-10.32,5.57q-5.67,0-8.86-3.31T518.54,968q0-5.91,3.07-9.19t8.64-3.29q5.28,0,8.21,3.22a12.2,12.2,0,0,1,2.93,8.54A18.42,18.42,0,0,1,541.2,970Zm-15.44-8.69a7.88,7.88,0,0,0-2.13,4.75h13a8,8,0,0,0-2-4.7,5.79,5.79,0,0,0-4.3-1.68A6.21,6.21,0,0,0,525.76,961.27Z"/><path class="cls-59" d="M562.84,956l-.81,4.7a6.28,6.28,0,0,0-3-.62,5.52,5.52,0,0,0-2.9.82,6.23,6.23,0,0,0-2.26,2.44,8.16,8.16,0,0,0-.88,3.94V980h-5.14V956h4.37l.43,4.32q2-4.8,7.58-4.8A6,6,0,0,1,562.84,956Z"/><path class="cls-59" d="M569.11,975a5.86,5.86,0,0,1,1.08,3.67,9.2,9.2,0,0,1-1.44,5,9.62,9.62,0,0,1-4.23,3.58L562,985.13a8.68,8.68,0,0,0,3.31-2,6.39,6.39,0,0,0,1.77-3l-.24-.09a1.88,1.88,0,0,1-1.34.38,3,3,0,0,1-2.14-.89,3.24,3.24,0,0,1-.93-2.47,3.37,3.37,0,0,1,1-2.54,3.64,3.64,0,0,1,2.6-1A3.55,3.55,0,0,1,569.11,975Z"/><path class="cls-59" d="M609.21,971.74H595.87l-3,8.3h-5.28l12-31.68h6.15l12,31.68h-5.42Zm-1.54-4.18L604,957.38l-1.44-4.56h-.15l-1.34,4.47-3.75,10.27Z"/><path class="cls-59" d="M644.25,945.24V980h-4.51l-.29-4.27a8.15,8.15,0,0,1-3.19,3.45,9.17,9.17,0,0,1-4.87,1.3,9.79,9.79,0,0,1-7.8-3.29q-2.87-3.29-2.86-9.14t2.86-9.19a9.7,9.7,0,0,1,7.8-3.34,9,9,0,0,1,4.65,1.18,7.73,7.73,0,0,1,3.07,3.19V945.24Zm-6.91,29a9,9,0,0,0,1.77-5.9v-.58a9,9,0,0,0-1.77-5.88,5.94,5.94,0,0,0-4.8-2.13,5.87,5.87,0,0,0-4.87,2.18,11.56,11.56,0,0,0,0,12.26,5.84,5.84,0,0,0,4.87,2.21A5.91,5.91,0,0,0,637.34,974.23Z"/><path class="cls-59" d="M673.39,956l-9.56,24h-5.61l-9.6-24h5.66l6.77,19.82L668,956Z"/><path class="cls-59" d="M698.88,970H681.31a7.63,7.63,0,0,0,2.25,4.82,6.73,6.73,0,0,0,4.71,1.66,8.2,8.2,0,0,0,3.91-.84,4.44,4.44,0,0,0,2.14-2.42l4.27,1.77q-2.7,5.56-10.32,5.57-5.67,0-8.86-3.31T676.22,968q0-5.91,3.07-9.19t8.64-3.29q5.28,0,8.21,3.22a12.2,12.2,0,0,1,2.93,8.54A18.42,18.42,0,0,1,698.88,970Zm-15.44-8.69a7.83,7.83,0,0,0-2.13,4.75h13a8,8,0,0,0-2-4.7,5.79,5.79,0,0,0-4.3-1.68A6.21,6.21,0,0,0,683.44,961.27Z"/><path class="cls-59" d="M724.92,957.86a8.57,8.57,0,0,1,2.51,6.63V980H722.3V966.12c0-4.22-1.71-6.34-5.14-6.34a6.43,6.43,0,0,0-4.61,1.85q-1.92,1.85-1.92,5.69V980H705.5V956h4.56l.24,4a7.84,7.84,0,0,1,3.31-3.36,10.29,10.29,0,0,1,4.8-1.1A9.31,9.31,0,0,1,724.92,957.86Z"/><path class="cls-59" d="M750.47,978.46a8.52,8.52,0,0,1-2.8,1.51,11.24,11.24,0,0,1-3.58.55,8,8,0,0,1-5.3-1.66q-2-1.65-2-5.16V960.07h-4.56v-4h4.56v-5.62l5.13-1.44V956h8.4v4h-8.4v12.77a3.27,3.27,0,0,0,.94,2.57,3.7,3.7,0,0,0,2.57.84,5.55,5.55,0,0,0,3.88-1.54Z"/><path class="cls-59" d="M777,956v24h-4.56l-.19-3.89c-1.64,2.91-4.48,4.37-8.55,4.37a9,9,0,0,1-6.26-2.14q-2.38-2.13-2.38-6.55V956h5.14v14.45c0,2.11.41,3.61,1.25,4.49a4.84,4.84,0,0,0,3.69,1.32,6.66,6.66,0,0,0,4.83-1.85,7.29,7.29,0,0,0,1.89-5.45V956Z"/><path class="cls-59" d="M800,956l-.82,4.7a6.21,6.21,0,0,0-3-.62,5.55,5.55,0,0,0-2.91.82,6.21,6.21,0,0,0-2.25,2.44,8.16,8.16,0,0,0-.89,3.94V980H785V956h4.36l.44,4.32q2-4.8,7.58-4.8A6,6,0,0,1,800,956Z"/><path class="cls-59" d="M825.5,970H807.93a7.68,7.68,0,0,0,2.25,4.82,6.73,6.73,0,0,0,4.71,1.66,8.17,8.17,0,0,0,3.91-.84,4.44,4.44,0,0,0,2.14-2.42l4.27,1.77q-2.69,5.56-10.32,5.57-5.67,0-8.86-3.31T802.84,968q0-5.91,3.07-9.19t8.64-3.29q5.28,0,8.21,3.22a12.2,12.2,0,0,1,2.93,8.54A18.42,18.42,0,0,1,825.5,970Zm-15.43-8.69a7.83,7.83,0,0,0-2.14,4.75h13a8,8,0,0,0-2-4.7,5.77,5.77,0,0,0-4.3-1.68A6.19,6.19,0,0,0,810.07,961.27Z"/><path class="cls-59" d="M847.14,956l-.81,4.7a6.28,6.28,0,0,0-3-.62,5.52,5.52,0,0,0-2.9.82,6.3,6.3,0,0,0-2.26,2.44,8.16,8.16,0,0,0-.88,3.94V980h-5.14V956h4.37l.43,4.32q2-4.8,7.58-4.8A6,6,0,0,1,847.14,956Z"/><path class="cls-59" d="M853.07,974.5a3.29,3.29,0,0,1,1,2.52,3.38,3.38,0,0,1-1,2.54,3.57,3.57,0,0,1-2.61,1,3.66,3.66,0,0,1-2.64-1,3.71,3.71,0,0,1,0-5.06,3.69,3.69,0,0,1,2.67-.94A3.6,3.6,0,0,1,853.07,974.5Z"/><path class="cls-59" d="M1272.94,99.62v17.26H1270l-.15-2.24a4.1,4.1,0,0,1-1.57,1.8,4.31,4.31,0,0,1-2.39.68,4.64,4.64,0,0,1-3.77-1.65,6.94,6.94,0,0,1-1.36-4.57,7.06,7.06,0,0,1,1.36-4.61,4.64,4.64,0,0,1,3.77-1.65,4.25,4.25,0,0,1,2.26.58,4.16,4.16,0,0,1,1.49,1.62V99.62Zm-4,14a4.15,4.15,0,0,0,.75-2.66v-.24a4.21,4.21,0,0,0-.75-2.66,2.69,2.69,0,0,0-4.1,0,5.45,5.45,0,0,0,0,5.52,2.69,2.69,0,0,0,4.1,0Z"/><path class="cls-59" d="M1287.54,112.12H1279a2.81,2.81,0,0,0,3,2.55,3.32,3.32,0,0,0,1.7-.39,2,2,0,0,0,.94-1.1l2.69,1a4.29,4.29,0,0,1-1.93,2.2,7,7,0,0,1-3.4.76,5.7,5.7,0,0,1-6.24-6.24,6.39,6.39,0,0,1,1.58-4.6,5.91,5.91,0,0,1,4.47-1.64,5.57,5.57,0,0,1,4.28,1.6,6.49,6.49,0,0,1,1.5,4.59A8.91,8.91,0,0,1,1287.54,112.12Zm-7.62-4.36a3.37,3.37,0,0,0-.9,2.06h5.59a3.46,3.46,0,0,0-.91-2,2.89,2.89,0,0,0-3.78,0Z"/><path class="cls-59" d="M1289.48,114.81l1.92-2a2.86,2.86,0,0,0,1.38,1.46,5.23,5.23,0,0,0,2.22.42,3.74,3.74,0,0,0,1.63-.29.88.88,0,0,0,.58-.79c0-.28-.18-.51-.54-.7a7.29,7.29,0,0,0-1.86-.55,9.42,9.42,0,0,1-3.88-1.45,3,3,0,0,1-1.11-2.44,3.24,3.24,0,0,1,.62-1.9,4.32,4.32,0,0,1,1.85-1.42,7.2,7.2,0,0,1,2.93-.54,7.41,7.41,0,0,1,3.26.61,5.2,5.2,0,0,1,2.09,1.93l-2,1.73a3.62,3.62,0,0,0-1.31-1.42,3.87,3.87,0,0,0-2-.45,3.21,3.21,0,0,0-1.57.33,1,1,0,0,0-.59.82,1,1,0,0,0,.58.84,7.2,7.2,0,0,0,2,.62,9.21,9.21,0,0,1,3.71,1.38,2.83,2.83,0,0,1,1.09,2.37,3.17,3.17,0,0,1-1.43,2.7,6.87,6.87,0,0,1-4,1Q1291,117.12,1289.48,114.81Z"/><path class="cls-59" d="M1302.75,101.4c0-1.19.68-1.78,2-1.78s2,.59,2,1.78-.68,1.75-2,1.75S1302.75,102.56,1302.75,101.4Zm3.67,15.48h-3.28v-12h3.28Z"/><path class="cls-59" d="M1320.24,115.48a3,3,0,0,1,1.06,2.48,3.35,3.35,0,0,1-1.77,3,9,9,0,0,1-4.68,1.08,9.57,9.57,0,0,1-4.45-.8,2.39,2.39,0,0,1-1.46-2.16,2,2,0,0,1,.56-1.41,3.18,3.18,0,0,1,1.63-.87,3.11,3.11,0,0,1-1.3-.94,2.31,2.31,0,0,1-.48-1.46,2.26,2.26,0,0,1,.51-1.48,3,3,0,0,1,1.39-.94,3.64,3.64,0,0,1-1.39-1.36,3.7,3.7,0,0,1-.48-1.9,3.52,3.52,0,0,1,1.47-3,6.63,6.63,0,0,1,4-1.09,9,9,0,0,1,2.43.31,4,4,0,0,1,1.21-2.22,3.2,3.2,0,0,1,2.43-.71l.44,2.35-.51,0a3.08,3.08,0,0,0-1.47.31,1.77,1.77,0,0,0-.83.84,3.69,3.69,0,0,1,1.35,1.34,3.65,3.65,0,0,1,.47,1.88,3.5,3.5,0,0,1-1.47,3,6.69,6.69,0,0,1-4.05,1.09,10.41,10.41,0,0,1-2.16-.21,1.06,1.06,0,0,0-.93,1.08.84.84,0,0,0,.36.73,1.7,1.7,0,0,0,1,.25h4.06A4.78,4.78,0,0,1,1320.24,115.48Zm-2.54,3.88c.61-.28.92-.64.92-1.07a.81.81,0,0,0-.42-.75,2.78,2.78,0,0,0-1.38-.26h-3.27c-1.33,0-2,.36-2,1.08,0,.45.3.8.89,1a7.2,7.2,0,0,0,2.66.37A6.34,6.34,0,0,0,1317.7,119.36Zm-4.4-12.11a1.85,1.85,0,0,0-.61,1.44,1.88,1.88,0,0,0,.61,1.47,2.29,2.29,0,0,0,1.57.55,2.34,2.34,0,0,0,1.6-.55,1.88,1.88,0,0,0,.61-1.47,1.85,1.85,0,0,0-.61-1.44,2.29,2.29,0,0,0-1.6-.55A2.25,2.25,0,0,0,1313.3,107.25Z"/><path class="cls-59" d="M1333.63,105.76a4.29,4.29,0,0,1,1.19,3.24v7.88h-3.29V110c0-1.82-.71-2.73-2.14-2.73a2.63,2.63,0,0,0-2,.81,3.43,3.43,0,0,0-.81,2.5v6.34h-3.29v-12h3l.09,2.13a4.13,4.13,0,0,1,1.66-1.77,4.86,4.86,0,0,1,2.45-.6A4.37,4.37,0,0,1,1333.63,105.76Z"/><path class="cls-59" d="M1431.7,105.6a4.76,4.76,0,0,1,1.8,2.56l-3.07,1.11c-.29-1.46-1.06-2.19-2.33-2.19a2.58,2.58,0,0,0-2.17,1,4.49,4.49,0,0,0-.76,2.84,4.41,4.41,0,0,0,.77,2.82,2.61,2.61,0,0,0,2.14,1,2.3,2.3,0,0,0,2.49-2.14l3,1a4.28,4.28,0,0,1-1.79,2.64,6.14,6.14,0,0,1-9.88-5.25,6.28,6.28,0,0,1,1.62-4.6,6,6,0,0,1,4.5-1.64A6.19,6.19,0,0,1,1431.7,105.6Z"/><path class="cls-59" d="M1446.21,106.29a7.3,7.3,0,0,1,0,9.17,7,7,0,0,1-9,0,7.3,7.3,0,0,1,0-9.17,7,7,0,0,1,9,0Zm-6.65,1.74a5.91,5.91,0,0,0,0,5.69,2.85,2.85,0,0,0,4.25,0,5.91,5.91,0,0,0,0-5.69,2.85,2.85,0,0,0-4.25,0Z"/><path class="cls-59" d="M1462.28,99.62v17.26h-2.93l-.14-2.24a4.19,4.19,0,0,1-1.58,1.8,4.29,4.29,0,0,1-2.39.68,4.61,4.61,0,0,1-3.76-1.65,6.89,6.89,0,0,1-1.37-4.57,7,7,0,0,1,1.37-4.61,4.61,4.61,0,0,1,3.76-1.65,4.25,4.25,0,0,1,2.26.58,4.08,4.08,0,0,1,1.49,1.62V99.62Zm-4,14A4.15,4.15,0,0,0,1459,111v-.24a4.21,4.21,0,0,0-.75-2.66,2.43,2.43,0,0,0-2-.94,2.47,2.47,0,0,0-2.07,1,5.52,5.52,0,0,0,0,5.52,2.69,2.69,0,0,0,4.1,0Z"/><path class="cls-59" d="M1476.87,112.12h-8.5a2.81,2.81,0,0,0,3,2.55,3.38,3.38,0,0,0,1.71-.39,2,2,0,0,0,.93-1.1l2.69,1a4.24,4.24,0,0,1-1.93,2.2,7,7,0,0,1-3.4.76,5.7,5.7,0,0,1-6.24-6.24,6.35,6.35,0,0,1,1.59-4.6,5.87,5.87,0,0,1,4.46-1.64,5.56,5.56,0,0,1,4.28,1.6,6.49,6.49,0,0,1,1.5,4.59A8.91,8.91,0,0,1,1476.87,112.12Zm-7.62-4.36a3.49,3.49,0,0,0-.9,2.06h5.59a3.46,3.46,0,0,0-.91-2,2.89,2.89,0,0,0-3.78,0Z"/><path class="cls-59" d="M1571.28,114.79l-.24,2a3.51,3.51,0,0,1-1.56.34q-2.3,0-2.76-1.8a3.23,3.23,0,0,1-1.63,1.34,6.93,6.93,0,0,1-2.62.46,4.23,4.23,0,0,1-2.73-.8,2.73,2.73,0,0,1-1-2.28q0-2.92,4.68-3.79l2.88-.55v-.58a2.11,2.11,0,0,0-.54-1.52,2,2,0,0,0-1.5-.56,3.13,3.13,0,0,0-1.8.48,2.57,2.57,0,0,0-1,1.56L1558.9,108a4,4,0,0,1,1.73-2.45,6.24,6.24,0,0,1,3.5-.88,6.44,6.44,0,0,1,4,1.11,3.93,3.93,0,0,1,1.44,3.3V114a1,1,0,0,0,.21.7,1,1,0,0,0,.68.21A3,3,0,0,0,1571.28,114.79Zm-5.84-.42a1.58,1.58,0,0,0,.87-1.41v-1.24l-2.56.57a3,3,0,0,0-1.22.52,1.09,1.09,0,0,0-.39.9,1.07,1.07,0,0,0,.36.87,1.52,1.52,0,0,0,1,.3A3.79,3.79,0,0,0,1565.44,114.37Z"/><path class="cls-59" d="M1584.1,106.29a7.06,7.06,0,0,1,1.37,4.61,6.94,6.94,0,0,1-1.37,4.57,4.63,4.63,0,0,1-3.77,1.65,4.25,4.25,0,0,1-4-2.62l-.12,2.38h-2.91V99.62h3.29v7.22a4,4,0,0,1,3.77-2.2A4.63,4.63,0,0,1,1584.1,106.29Zm-2.67,7.35a5.45,5.45,0,0,0,0-5.52,2.71,2.71,0,0,0-4-.12,3.87,3.87,0,0,0-.84,2.35v1.05a3.86,3.86,0,0,0,.84,2.37,2.52,2.52,0,0,0,1.95.83A2.47,2.47,0,0,0,1581.43,113.64Z"/><path class="cls-59" d="M1598.42,106.29a7.33,7.33,0,0,1,0,9.17,7,7,0,0,1-9.05,0,7.3,7.3,0,0,1,0-9.17,7,7,0,0,1,9.05,0Zm-6.65,1.74a5.84,5.84,0,0,0,0,5.69,2.84,2.84,0,0,0,4.24,0,5.84,5.84,0,0,0,0-5.69,2.84,2.84,0,0,0-4.24,0Z"/><path class="cls-59" d="M1614.27,104.88v12h-2.93l-.12-2.07a4.27,4.27,0,0,1-4.2,2.31,4.38,4.38,0,0,1-3.09-1.05,4.2,4.2,0,0,1-1.14-3.25v-7.94h3.29V112a2.92,2.92,0,0,0,.53,2,2,2,0,0,0,1.56.57,2.69,2.69,0,0,0,2-.8,3.34,3.34,0,0,0,.78-2.41v-6.43Z"/><path class="cls-59" d="M1626,116.13a4.1,4.1,0,0,1-1.45.72,6.19,6.19,0,0,1-1.83.27c-2.68,0-4-1.21-4-3.63v-6.17h-2.19v-2.44h2.19v-2.76l3.29-.92v3.68h3.88v2.44H1622V113a1.46,1.46,0,0,0,1.65,1.66,2.77,2.77,0,0,0,1.85-.67Z"/><path class="cls-59" d="M1722,105.6a4.76,4.76,0,0,1,1.8,2.56l-3.07,1.11c-.29-1.46-1.07-2.19-2.33-2.19a2.58,2.58,0,0,0-2.17,1,4.49,4.49,0,0,0-.76,2.84,4.41,4.41,0,0,0,.77,2.82,2.6,2.6,0,0,0,2.14,1,2.3,2.3,0,0,0,2.49-2.14l3,1a4.28,4.28,0,0,1-1.79,2.64,6.14,6.14,0,0,1-9.88-5.25,6.28,6.28,0,0,1,1.62-4.6,6,6,0,0,1,4.5-1.64A6.19,6.19,0,0,1,1722,105.6Z"/><path class="cls-59" d="M1736.51,106.29a7.3,7.3,0,0,1,0,9.17,7,7,0,0,1-9,0,7.3,7.3,0,0,1,0-9.17,7,7,0,0,1,9,0Zm-6.65,1.74a5.91,5.91,0,0,0,0,5.69,2.85,2.85,0,0,0,4.25,0,5.91,5.91,0,0,0,0-5.69,2.85,2.85,0,0,0-4.25,0Z"/><path class="cls-59" d="M1751.24,105.76a4.25,4.25,0,0,1,1.19,3.24v7.88h-3.29V110q0-2.73-2.13-2.73a2.66,2.66,0,0,0-2,.81,3.47,3.47,0,0,0-.8,2.5v6.34H1741v-12h3l.1,2.13a4.17,4.17,0,0,1,1.65-1.77,4.89,4.89,0,0,1,2.45-.6A4.35,4.35,0,0,1,1751.24,105.76Z"/><path class="cls-59" d="M1764,116.13a4.1,4.1,0,0,1-1.45.72,6.21,6.21,0,0,1-1.84.27q-4,0-4-3.63v-6.17h-2.19v-2.44h2.19v-2.76l3.28-.92v3.68h3.89v2.44h-3.89V113a1.47,1.47,0,0,0,1.66,1.66,2.77,2.77,0,0,0,1.85-.67Z"/><path class="cls-59" d="M1777.92,114.79l-.24,2a3.51,3.51,0,0,1-1.56.34q-2.31,0-2.76-1.8a3.27,3.27,0,0,1-1.63,1.34,6.93,6.93,0,0,1-2.62.46,4.26,4.26,0,0,1-2.74-.8,2.75,2.75,0,0,1-1-2.28q0-2.92,4.68-3.79l2.88-.55v-.58a2.11,2.11,0,0,0-.54-1.52,2,2,0,0,0-1.5-.56,3.09,3.09,0,0,0-1.8.48,2.57,2.57,0,0,0-1,1.56l-2.62-1.11a4,4,0,0,1,1.73-2.45,6.3,6.3,0,0,1,3.51-.88,6.41,6.41,0,0,1,4,1.11,3.93,3.93,0,0,1,1.44,3.3V114a1,1,0,0,0,.22.7.93.93,0,0,0,.67.21A3,3,0,0,0,1777.92,114.79Zm-5.85-.42A1.57,1.57,0,0,0,1773,113v-1.24l-2.57.57a3,3,0,0,0-1.21.52,1.1,1.1,0,0,0-.4.9,1.07,1.07,0,0,0,.36.87,1.54,1.54,0,0,0,1,.3A3.74,3.74,0,0,0,1772.07,114.37Z"/><path class="cls-59" d="M1789.05,105.6a4.76,4.76,0,0,1,1.8,2.56l-3.07,1.11c-.28-1.46-1.06-2.19-2.32-2.19a2.6,2.6,0,0,0-2.18,1,4.56,4.56,0,0,0-.75,2.84,4.41,4.41,0,0,0,.76,2.82,2.62,2.62,0,0,0,2.14,1,2.31,2.31,0,0,0,2.5-2.14l3,1a4.27,4.27,0,0,1-1.78,2.64,6.13,6.13,0,0,1-9.88-5.25,6.28,6.28,0,0,1,1.62-4.6,6,6,0,0,1,4.5-1.64A6.18,6.18,0,0,1,1789.05,105.6Z"/><path class="cls-59" d="M1801.75,116.13a4.1,4.1,0,0,1-1.45.72,6.25,6.25,0,0,1-1.84.27q-4,0-4-3.63v-6.17h-2.18v-2.44h2.18v-2.76l3.29-.92v3.68h3.89v2.44h-3.89V113a1.46,1.46,0,0,0,1.66,1.66,2.77,2.77,0,0,0,1.85-.67Z"/><g class="cls-60"><g class="cls-61"><rect class="cls-59" x="96.78" y="219.89" width="43.39" height="43.75"/></g></g><g class="cls-62"><g class="cls-61"><rect class="cls-63" x="96.78" y="173.35" width="43.39" height="42.91"/></g></g><g class="cls-64"><g class="cls-61"><g class="cls-65"><g class="cls-66"><g class="cls-67"><g class="cls-66"><rect class="cls-59" x="91.48" y="126.03" width="55.13" height="43.69"/></g></g></g></g></g></g><g class="cls-68"><g class="cls-61"><g class="cls-65"><g class="cls-69"><g class="cls-70"><g class="cls-69"><rect class="cls-71" x="90.59" y="91.96" width="25.28" height="39.38"/></g></g></g></g></g></g><g class="cls-72"><g class="cls-61"><rect class="cls-59" x="108.57" y="91.96" width="37.95" height="38.73"/></g></g></svg>